{"glyphs":{"0":{"ha":920,"x_min":34,"x_max":886,"o":"m 34 547 q 146 933 34 777 q 460 1099 265 1099 q 772 934 655 1099 q 886 547 886 777 q 772 159 886 317 q 460 -5 654 -5 q 146 161 264 -5 q 34 547 34 317 m 594 807 q 459 878 542 878 q 325 807 377 878 q 253 547 253 705 q 325 288 253 388 q 459 216 377 216 q 594 288 542 216 q 665 547 665 387 q 594 807 665 706 z "},"1":{"ha":432,"x_min":34,"x_max":364,"o":"m 364 1098 l 364 0 l 144 0 l 144 808 l 34 775 l 34 1004 l 364 1098 z "},"2":{"ha":852,"x_min":34,"x_max":819,"o":"m 428 880 q 308 829 358 880 q 258 710 258 780 l 38 710 q 152 985 38 871 q 429 1099 267 1099 q 704 985 590 1099 q 819 710 819 871 q 766 518 819 612 q 633 339 713 424 l 618 323 l 604 307 l 574 277 q 510 219 540 243 l 814 219 l 814 0 l 34 0 l 71 125 q 429 437 269 264 q 551 591 504 519 q 598 710 598 663 q 548 830 598 780 q 428 880 498 880 z "},"3":{"ha":789,"x_min":33,"x_max":755,"o":"m 389 224 q 490 262 448 224 q 533 359 533 302 q 465 500 533 438 q 267 568 396 562 l 313 659 q 439 716 399 675 q 478 805 478 756 l 476 804 q 450 865 476 840 q 388 892 424 892 q 331 871 355 892 q 302 822 307 851 l 83 869 q 189 1040 106 970 q 388 1114 275 1114 q 608 1023 515 1114 q 699 803 699 931 q 638 617 699 699 q 646 611 644 613 q 755 357 755 506 q 646 104 755 208 q 388 0 539 0 q 164 75 263 0 q 33 271 63 151 l 249 326 q 298 254 258 283 q 389 224 338 224 z "},"4":{"ha":960,"x_min":34,"x_max":926,"o":"m 597 1097 l 363 454 l 597 454 l 597 879 l 817 879 l 817 454 l 926 454 l 926 235 l 817 235 l 817 0 l 597 0 l 597 235 l 34 235 l 360 1098 l 597 1097 z "},"5":{"ha":833,"x_min":34,"x_max":800,"o":"m 400 219 q 520 266 470 219 q 571 382 571 314 q 521 498 571 449 q 475 534 494 524 q 413 549 449 549 l 413 549 q 296 534 335 549 q 193 462 257 518 l 71 525 l 126 1093 l 710 1093 l 710 875 l 309 875 l 296 746 q 413 762 347 762 q 681 650 562 762 q 800 382 800 537 q 682 112 800 223 q 400 0 565 0 q 173 69 276 0 q 34 231 77 133 l 252 300 q 400 219 303 219 z "},"6":{"ha":837,"x_min":34,"x_max":803,"o":"m 420 214 q 536 263 488 214 q 585 379 585 312 q 536 495 585 446 q 420 545 488 545 l 419 544 q 302 495 351 544 q 254 378 254 446 q 302 263 254 311 q 420 214 351 214 m 635 1092 l 446 762 q 699 640 595 749 q 803 378 803 529 q 690 107 803 218 q 418 -4 577 -4 q 146 107 258 -4 q 34 378 34 218 q 81 564 34 474 q 85 572 83 566 l 92 583 q 101 601 98 596 l 385 1093 l 635 1092 z "},"7":{"ha":815,"x_min":34,"x_max":781,"o":"m 781 1093 l 435 -4 l 204 -4 l 479 879 l 34 879 l 34 1093 l 781 1093 z "},"8":{"ha":782,"x_min":34,"x_max":748,"o":"m 309 795 q 334 738 309 762 q 393 713 359 713 l 392 713 q 450 737 425 713 q 475 795 475 762 q 450 853 475 829 q 393 878 425 878 q 334 853 359 878 q 309 795 309 829 m 635 616 q 748 355 748 510 q 644 102 748 207 q 391 -1 540 -1 q 139 102 243 -1 q 34 355 34 206 q 148 616 34 509 q 90 794 90 696 q 178 1007 90 919 q 392 1095 267 1095 q 606 1007 516 1095 q 694 794 694 919 q 635 616 694 696 l 635 616 m 391 216 q 488 256 447 216 q 530 354 530 298 q 488 452 530 410 q 391 494 447 494 l 389 492 q 292 450 333 492 q 252 353 252 409 q 293 256 252 296 q 391 216 333 216 z "},"9":{"ha":837,"x_min":34,"x_max":803,"o":"m 253 715 q 302 599 253 648 q 418 550 351 550 q 534 599 486 550 q 583 715 583 648 q 534 831 583 782 q 418 880 486 880 q 301 831 350 880 q 253 715 253 782 m 201 0 l 391 331 q 138 452 240 342 q 34 714 34 563 q 146 986 34 872 q 418 1099 258 1099 q 690 986 577 1099 q 803 714 803 873 q 760 538 803 622 q 755 528 758 534 l 748 515 q 737 494 741 500 l 452 1 l 201 0 z "},"\u0000":{"ha":407,"x_min":0,"x_max":0,"o":""}," ":{"ha":407,"x_min":0,"x_max":0,"o":""},"!":{"ha":403,"x_min":61,"x_max":342,"o":"m 201 -35 q 102 6 144 -35 q 61 105 61 47 q 102 203 61 162 q 201 243 144 243 q 300 201 258 243 q 342 102 342 159 q 300 5 342 45 q 201 -35 259 -35 m 109 317 q 93 707 104 476 l 87 802 l 83 897 q 73 1093 77 1010 l 327 1093 l 292 317 l 109 317 z "},"\"":{"ha":547,"x_min":27,"x_max":520,"o":"m 248 1121 l 219 765 l 55 765 l 27 1121 l 248 1121 m 520 1121 l 492 765 l 328 765 l 300 1121 l 520 1121 z "},"#":{"ha":918,"x_min":34,"x_max":884,"o":"m 54 366 l 210 366 l 237 575 l 81 575 l 102 731 l 258 731 l 300 1044 l 456 1044 l 415 731 l 572 731 l 613 1044 l 770 1044 l 728 731 l 884 731 l 865 575 l 708 575 l 680 366 l 837 366 l 817 210 l 661 210 l 632 0 l 475 0 l 503 210 l 347 210 l 319 0 l 162 0 l 190 210 l 34 210 l 54 366 m 395 575 l 368 366 l 524 366 l 551 575 l 395 575 z "},"$":{"ha":727,"x_min":34,"x_max":693,"o":"m 475 328 q 443 405 475 372 q 366 437 410 437 l 364 438 q 131 534 227 438 q 34 768 34 631 q 109 975 34 884 q 283 1086 179 1059 l 283 1199 l 448 1199 l 448 1086 q 619 975 551 1059 q 693 768 693 884 l 474 768 q 441 845 474 812 q 364 878 409 878 q 286 845 319 878 q 254 768 254 812 q 286 690 254 724 q 364 656 319 656 q 597 560 499 656 q 693 328 693 464 q 620 119 693 210 q 448 7 551 33 l 448 -105 l 283 -105 l 283 7 q 109 119 179 33 q 35 328 35 210 l 255 328 q 288 250 255 283 q 366 218 320 218 q 443 250 411 218 q 475 328 475 282 z "},"%":{"ha":1053,"x_min":47,"x_max":1004,"o":"m 47 874 q 112 1029 47 964 q 267 1093 177 1093 q 420 1027 355 1093 q 486 874 486 962 q 420 720 486 785 q 267 654 355 654 q 111 719 176 654 q 47 874 47 783 m 758 360 q 643 245 643 360 q 758 131 643 131 q 873 245 873 131 q 758 360 873 360 m 513 245 q 585 419 513 347 q 759 492 659 492 q 932 418 859 492 q 1004 245 1004 347 q 932 73 1004 145 q 759 0 859 0 q 585 73 658 0 q 513 245 513 144 m 901 1094 l 210 0 l 47 0 l 738 1094 l 901 1094 m 348 875 q 323 932 349 907 q 267 958 298 958 q 211 936 239 958 q 184 876 184 915 q 210 814 184 836 q 267 792 235 792 q 323 817 299 792 q 348 875 347 841 z "},"&":{"ha":1052,"x_min":47,"x_max":1004,"o":"m 536 813 q 507 862 529 842 q 450 882 482 882 q 366 817 378 882 q 389 749 362 800 q 470 616 427 673 q 536 539 494 583 l 555 520 l 574 500 q 614 458 597 475 q 673 398 652 417 q 682 468 680 427 q 683 505 682 481 l 684 525 l 684 546 l 890 549 q 844 266 885 356 l 852 261 l 860 256 q 878 245 870 250 q 917 223 899 232 q 1004 200 966 199 l 1004 -3 q 862 25 933 -3 q 804 53 835 37 q 778 68 792 60 q 753 83 769 73 q 720 106 734 94 q 551 9 659 37 q 411 -11 473 -11 q 153 92 258 -11 q 47 340 47 194 q 96 494 50 435 q 193 602 142 553 q 211 617 197 607 q 165 709 186 652 q 140 819 142 770 q 224 1006 140 922 q 321 1072 260 1042 q 450 1105 391 1105 q 650 1031 563 1105 q 754 859 731 962 l 536 813 m 412 204 q 491 219 445 204 q 551 253 540 235 l 551 252 q 460 334 532 269 q 342 474 388 399 q 283 423 313 452 q 256 337 254 394 q 272 279 256 309 q 304 235 286 253 q 412 204 336 204 z "},"'":{"ha":275,"x_min":27,"x_max":248,"o":"m 248 1121 l 219 765 l 55 765 l 27 1121 l 248 1121 z "},"(":{"ha":505,"x_min":61,"x_max":444,"o":"m 406 -209 q 161 36 262 -180 q 61 547 61 252 q 161 1058 61 841 q 406 1303 261 1274 l 444 1124 q 320 955 370 1124 q 269 547 269 785 q 320 138 269 309 q 444 -31 371 -31 l 406 -209 z "},")":{"ha":504,"x_min":61,"x_max":443,"o":"m 61 -31 q 184 138 132 -31 q 236 547 236 308 q 184 955 236 786 q 61 1124 132 1124 l 99 1303 q 343 1058 243 1274 q 443 547 443 841 q 343 36 443 252 q 99 -209 243 -180 l 61 -31 z "},"*":{"ha":533,"x_min":27,"x_max":506,"o":"m 339 1148 l 327 1009 l 429 1086 l 506 973 l 356 895 l 506 815 l 429 703 l 327 780 l 339 641 l 194 641 l 206 780 l 104 703 l 27 815 l 178 895 l 27 973 l 104 1086 l 206 1009 l 194 1148 l 339 1148 z "},"+":{"ha":699,"x_min":47,"x_max":652,"o":"m 47 561 l 254 561 l 254 836 l 446 836 l 446 561 l 652 561 l 652 369 l 446 369 l 446 94 l 254 94 l 254 369 l 47 369 l 47 561 z "},",":{"ha":402,"x_min":54,"x_max":348,"o":"m 54 99 q 97 202 54 159 q 200 245 140 245 l 199 245 q 303 201 258 245 q 348 96 348 155 q 273 -95 348 -11 q 180 -152 242 -130 q 125 -151 164 -157 q 81 -137 87 -145 q 120 -98 73 -124 q 154 -30 167 -73 q 84 16 111 -16 q 54 99 54 51 z "},"-":{"ha":631,"x_min":47,"x_max":583,"o":"m 47 561 l 583 561 l 583 369 l 47 369 l 47 561 z "},".":{"ha":403,"x_min":61,"x_max":342,"o":"m 201 -35 q 102 6 144 -35 q 61 105 61 47 q 102 204 61 163 q 201 245 144 245 q 300 204 258 245 q 342 105 342 162 q 300 7 342 47 q 201 -35 259 -35 z "},"/":{"ha":663,"x_min":0,"x_max":663,"o":"m 663 1233 l 192 -139 l 0 -139 l 470 1233 l 663 1233 z "},":":{"ha":389,"x_min":54,"x_max":335,"o":"m 195 0 q 96 41 137 0 q 54 140 54 83 q 96 239 54 198 q 195 281 137 281 q 294 239 252 281 q 335 140 335 197 q 294 41 335 83 q 195 0 252 0 m 195 620 q 96 661 137 620 q 54 760 54 702 q 96 859 54 817 q 195 900 137 900 q 294 859 252 900 q 335 760 335 817 q 294 661 335 702 q 195 620 252 620 z "},";":{"ha":402,"x_min":54,"x_max":348,"o":"m 196 620 q 97 661 138 620 q 56 760 56 702 q 97 859 56 817 q 196 900 138 900 q 295 859 254 900 q 336 760 336 817 q 295 661 336 702 q 196 620 254 620 m 54 137 q 98 240 54 197 q 201 283 140 283 l 199 283 q 303 239 259 283 q 348 134 348 194 q 273 -56 348 26 q 180 -113 242 -91 q 125 -113 164 -118 q 81 -98 87 -106 q 120 -60 73 -85 q 154 8 167 -35 q 84 54 111 22 q 54 137 54 90 z "},"<":{"ha":820,"x_min":27,"x_max":793,"o":"m 793 667 l 401 441 l 793 216 l 793 0 l 27 441 l 793 882 l 793 667 z "},"=":{"ha":658,"x_min":54,"x_max":604,"o":"m 54 396 l 604 396 l 604 204 l 54 204 l 54 396 m 54 726 l 604 726 l 604 533 l 54 533 l 54 726 z "},">":{"ha":820,"x_min":27,"x_max":793,"o":"m 793 441 l 27 0 l 27 216 l 419 441 l 27 667 l 27 882 l 793 441 z "},"?":{"ha":754,"x_min":26,"x_max":727,"o":"m 370 -35 q 271 6 313 -35 q 230 105 230 47 q 271 203 230 162 q 370 243 313 243 q 469 201 428 243 q 511 102 511 159 q 469 5 511 45 q 370 -35 429 -35 m 376 888 q 294 852 328 888 q 259 770 259 817 l 27 770 q 130 1018 26 916 q 376 1120 233 1120 q 624 1018 521 1120 q 727 770 726 915 q 696 658 727 703 q 625 572 663 611 q 511 456 564 513 q 479 297 458 399 l 245 296 l 245 316 q 280 486 245 423 q 382 615 319 555 q 454 694 416 648 q 493 770 492 740 q 458 852 492 817 q 376 888 423 888 z "},"@":{"ha":1463,"x_min":33,"x_max":1429,"o":"m 831 290 q 701 241 799 241 q 505 329 591 241 q 417 538 417 415 q 496 743 417 649 q 691 836 575 836 q 760 819 715 836 q 819 774 804 802 l 819 837 l 1004 837 l 1006 419 q 1035 333 1006 356 q 1088 317 1063 311 q 1189 418 1159 336 q 1219 555 1219 498 q 1084 903 1219 769 q 730 1034 951 1034 l 732 1034 q 382 896 521 1034 q 243 545 243 758 q 382 195 243 331 q 732 57 520 57 q 851 61 807 57 q 953 84 916 67 l 1027 -109 q 732 -150 941 -150 q 233 47 433 -150 q 33 544 33 245 q 232 1042 33 842 q 732 1244 435 1244 q 1234 1051 1038 1244 q 1429 553 1429 855 q 1329 245 1429 382 q 1039 121 1229 107 q 831 290 884 132 m 820 537 q 791 614 820 585 q 715 642 762 642 l 714 643 q 641 612 672 643 q 610 538 610 581 q 641 463 610 494 q 715 433 671 433 q 791 460 763 433 q 820 537 819 488 z "},"A":{"ha":1052,"x_min":27,"x_max":1025,"o":"m 526 1116 l 1025 0 l 787 0 l 713 166 l 338 166 l 264 0 l 27 0 l 526 1116 m 626 360 l 526 591 l 425 360 l 626 360 z "},"B":{"ha":842,"x_min":68,"x_max":815,"o":"m 677 794 q 662 712 677 758 q 631 643 649 675 q 675 618 654 632 q 715 587 701 601 q 815 345 815 486 q 715 102 815 202 q 474 0 616 0 l 68 0 l 68 1093 l 373 1093 q 590 1002 500 1093 q 677 794 677 914 m 474 214 q 564 253 527 214 q 601 345 601 291 q 563 437 601 398 q 474 479 526 475 q 380 480 435 481 l 335 480 q 287 479 306 479 l 287 214 l 474 214 m 465 785 q 438 852 465 823 q 373 880 411 880 l 287 880 l 287 680 q 369 685 316 681 q 437 717 410 690 q 465 785 465 745 z "},"C":{"ha":1002,"x_min":27,"x_max":975,"o":"m 975 154 q 581 -7 812 -7 q 190 154 352 -7 q 27 546 27 317 q 190 939 27 774 q 581 1102 353 1102 l 581 1099 q 974 937 806 1099 l 817 781 q 582 878 718 878 q 347 781 444 878 q 250 545 250 682 q 347 310 250 408 q 582 213 444 213 q 818 311 720 213 l 975 154 z "},"D":{"ha":932,"x_min":68,"x_max":905,"o":"m 359 1093 q 758 932 596 1093 q 905 546 905 785 q 758 160 905 306 q 359 0 597 0 l 68 0 l 68 1093 l 359 1093 l 359 1093 m 686 547 q 595 785 686 694 q 358 876 505 876 l 287 876 l 287 219 l 360 219 q 597 309 508 219 q 686 547 686 399 z "},"E":{"ha":754,"x_min":68,"x_max":727,"o":"m 727 1096 l 727 877 l 288 877 l 288 656 l 617 656 l 617 437 l 288 437 l 288 217 l 727 217 l 727 -1 l 68 -1 l 68 1096 l 727 1096 z "},"F":{"ha":754,"x_min":68,"x_max":727,"o":"m 727 1096 l 727 877 l 288 877 l 288 656 l 617 656 l 617 437 l 288 437 l 288 -1 l 68 -1 l 68 1096 l 727 1096 z "},"G":{"ha":1162,"x_min":27,"x_max":1154,"o":"m 582 1100 q 975 938 810 1100 l 818 781 q 583 880 718 880 q 349 781 446 880 q 251 546 251 684 q 349 311 251 408 q 583 213 445 213 q 768 270 685 213 q 883 404 845 322 l 571 404 l 571 614 l 1133 614 q 973 154 1154 334 q 581 -8 810 -8 q 190 154 351 -8 q 27 546 27 315 q 190 939 27 774 q 581 1102 351 1102 l 582 1100 z "},"H":{"ha":939,"x_min":68,"x_max":871,"o":"m 287 1093 l 287 656 l 652 656 l 652 1093 l 871 1093 l 871 0 l 652 0 l 652 438 l 287 438 l 287 0 l 68 0 l 68 1093 l 287 1093 z "},"I":{"ha":355,"x_min":68,"x_max":288,"o":"m 68 1093 l 288 1093 l 288 0 l 68 0 l 68 1093 z "},"J":{"ha":784,"x_min":27,"x_max":716,"o":"m 279 208 q 433 274 369 208 q 496 429 496 339 l 496 648 l 492 1093 l 712 1093 l 716 652 l 716 427 q 587 116 716 243 q 280 -12 459 -9 l 273 -12 q 27 64 134 -10 l 138 257 q 274 208 196 208 l 279 208 z "},"K":{"ha":900,"x_min":68,"x_max":873,"o":"m 287 1093 l 287 610 l 567 1093 l 821 1093 l 497 538 l 873 0 l 606 0 l 287 458 l 287 0 l 68 0 l 68 1093 l 287 1093 z "},"L":{"ha":754,"x_min":68,"x_max":727,"o":"m 288 1093 l 288 218 l 727 218 l 727 0 l 68 0 l 68 1093 l 288 1093 z "},"M":{"ha":1206,"x_min":68,"x_max":1139,"o":"m 604 385 l 1139 1119 l 1139 0 l 919 0 l 919 453 l 604 18 l 288 453 l 288 0 l 68 0 l 68 1119 l 604 385 z "},"N":{"ha":1015,"x_min":68,"x_max":947,"o":"m 726 489 l 726 1096 l 947 1096 l 947 -22 l 288 606 l 288 -1 l 68 -1 l 68 1116 l 726 489 z "},"O":{"ha":1163,"x_min":27,"x_max":1137,"o":"m 582 1102 q 974 939 810 1102 q 1137 546 1137 775 q 974 154 1137 316 q 582 -7 811 -7 q 190 154 352 -7 q 27 546 27 317 q 190 939 27 774 q 582 1102 353 1102 m 582 880 q 347 783 443 880 q 249 547 249 684 q 347 312 249 410 q 582 215 444 215 q 817 312 718 215 q 915 547 915 409 q 817 783 915 684 q 582 880 719 880 z "},"P":{"ha":863,"x_min":68,"x_max":836,"o":"m 68 1093 l 452 1093 q 723 981 611 1093 q 836 710 836 869 q 723 440 836 550 q 452 328 610 328 l 288 328 l 288 0 l 68 0 l 68 1093 m 616 710 q 568 826 616 777 q 452 876 519 876 l 288 876 l 288 546 l 452 545 q 568 594 519 545 q 616 710 616 643 z "},"Q":{"ha":1200,"x_min":27,"x_max":1173,"o":"m 1155 -52 q 816 43 941 -37 q 581 -7 711 -7 q 190 155 350 -7 q 27 546 27 316 q 190 939 27 774 q 581 1102 351 1102 q 974 939 810 1102 q 1137 546 1137 774 q 1008 192 1137 343 q 1173 163 1074 169 l 1155 -52 m 467 525 q 642 477 564 517 q 829 326 739 425 q 914 548 914 419 q 817 783 914 685 q 581 880 718 880 q 347 783 443 880 q 249 548 249 685 q 347 313 249 409 q 581 215 443 215 q 631 218 604 215 q 542 286 578 267 q 454 309 503 306 l 467 525 z "},"R":{"ha":897,"x_min":68,"x_max":871,"o":"m 68 1093 l 425 1093 q 711 982 598 1093 q 789 878 766 927 q 817 734 817 819 l 817 705 q 747 497 817 595 q 616 396 698 428 l 871 0 l 602 0 l 288 484 l 288 0 l 68 0 l 68 1093 m 446 573 q 548 618 505 573 q 590 727 590 664 q 547 832 590 787 q 411 876 502 876 l 288 876 l 288 574 l 372 574 l 372 573 l 446 573 z "},"S":{"ha":751,"x_min":27,"x_max":724,"o":"m 372 215 q 459 248 420 215 q 500 326 500 282 q 424 424 500 390 q 355 448 399 435 l 338 452 l 321 457 q 290 466 302 462 q 115 579 183 503 q 39 770 39 664 q 138 1006 39 908 q 374 1103 235 1103 q 593 1020 499 1103 q 703 816 686 939 l 485 770 q 452 848 485 815 q 375 880 420 880 q 296 848 329 880 q 263 769 263 814 q 335 667 263 705 q 401 641 361 653 q 433 631 414 637 l 449 627 l 464 622 q 646 515 575 590 q 724 325 724 433 q 618 90 724 189 q 374 -8 514 -8 q 146 74 247 -8 q 27 279 46 157 l 245 325 q 286 247 245 281 q 374 214 326 214 l 372 215 z "},"T":{"ha":812,"x_min":27,"x_max":785,"o":"m 785 1093 l 785 876 l 517 876 l 517 0 l 296 0 l 296 876 l 27 876 l 27 1093 l 785 1093 z "},"U":{"ha":1020,"x_min":68,"x_max":952,"o":"m 510 212 q 665 277 600 212 q 731 432 731 343 l 731 1093 l 952 1093 l 952 431 q 823 119 952 248 q 511 -10 692 -10 q 197 119 327 -10 q 68 431 68 248 l 68 1093 l 289 1093 l 289 432 q 355 277 289 342 q 510 212 420 212 z "},"V":{"ha":1042,"x_min":27,"x_max":1015,"o":"m 520 -24 l 27 1093 l 260 1093 l 519 494 l 780 1093 l 1015 1093 l 520 -24 z "},"W":{"ha":1337,"x_min":27,"x_max":1310,"o":"m 264 1093 l 466 576 l 669 1093 l 871 576 l 1072 1093 l 1310 1093 l 871 -24 l 666 519 l 466 -24 l 27 1093 l 264 1093 z "},"X":{"ha":932,"x_min":27,"x_max":905,"o":"m 279 1093 l 466 768 l 653 1093 l 905 1093 l 592 547 l 905 0 l 653 0 l 466 326 l 279 0 l 27 1 l 339 547 l 27 1093 l 279 1093 z "},"Y":{"ha":950,"x_min":27,"x_max":923,"o":"m 275 1093 l 475 714 l 674 1093 l 923 1093 l 584 469 l 584 0 l 366 0 l 366 469 l 27 1093 l 275 1093 z "},"Z":{"ha":823,"x_min":27,"x_max":796,"o":"m 796 1093 l 376 218 l 796 218 l 796 0 l 27 0 l 448 876 l 27 876 l 27 1093 l 796 1093 z "},"[":{"ha":593,"x_min":68,"x_max":526,"o":"m 68 547 q 135 709 68 641 q 297 777 203 777 q 458 709 391 777 q 526 547 526 641 q 458 385 526 452 q 297 317 391 317 q 135 385 202 317 q 68 547 68 452 z "},"\\":{"ha":635,"x_min":0,"x_max":635,"o":"m 635 -139 l 470 -139 l 0 1233 l 165 1233 l 635 -139 z "},"]":{"ha":593,"x_min":68,"x_max":526,"o":"m 68 547 q 135 709 68 641 q 297 777 203 777 q 458 709 391 777 q 526 547 526 641 q 458 385 526 452 q 297 317 391 317 q 135 385 202 317 q 68 547 68 452 z "},"^":{"ha":670,"x_min":27,"x_max":643,"o":"m 334 1102 l 643 575 l 452 575 l 334 775 l 217 575 l 27 575 l 334 1102 z "},"_":{"ha":820,"x_min":0,"x_max":820,"o":"m 0 75 l 820 75 l 820 -75 l 0 -75 l 0 75 z "},"`":{"ha":340,"x_min":7,"x_max":333,"o":"m 192 1175 l 333 792 l 219 737 l 7 1083 l 192 1175 z "},"a":{"ha":1052,"x_min":27,"x_max":1025,"o":"m 526 1116 l 1025 0 l 787 0 l 713 166 l 338 166 l 264 0 l 27 0 l 526 1116 m 626 360 l 526 591 l 425 360 l 626 360 z "},"b":{"ha":842,"x_min":68,"x_max":815,"o":"m 677 794 q 662 712 677 758 q 631 643 649 675 q 675 618 654 632 q 715 587 701 601 q 815 345 815 486 q 715 102 815 202 q 474 0 616 0 l 68 0 l 68 1093 l 373 1093 q 590 1002 500 1093 q 677 794 677 914 m 474 214 q 564 253 527 214 q 601 345 601 291 q 563 437 601 398 q 474 479 526 475 q 380 480 435 481 l 335 480 q 287 479 306 479 l 287 214 l 474 214 m 465 785 q 438 852 465 823 q 373 880 411 880 l 287 880 l 287 680 q 369 685 316 681 q 437 717 410 690 q 465 785 465 745 z "},"c":{"ha":1002,"x_min":27,"x_max":975,"o":"m 975 154 q 581 -7 812 -7 q 190 154 352 -7 q 27 546 27 317 q 190 939 27 774 q 581 1102 353 1102 l 581 1099 q 974 937 806 1099 l 817 781 q 582 878 718 878 q 347 781 444 878 q 250 545 250 682 q 347 310 250 408 q 582 213 444 213 q 818 311 720 213 l 975 154 z "},"d":{"ha":932,"x_min":68,"x_max":905,"o":"m 359 1093 q 758 932 596 1093 q 905 546 905 785 q 758 160 905 306 q 359 0 597 0 l 68 0 l 68 1093 l 359 1093 l 359 1093 m 686 547 q 595 785 686 694 q 358 876 505 876 l 287 876 l 287 219 l 360 219 q 597 309 508 219 q 686 547 686 399 z "},"e":{"ha":754,"x_min":68,"x_max":727,"o":"m 727 1096 l 727 877 l 288 877 l 288 656 l 617 656 l 617 437 l 288 437 l 288 217 l 727 217 l 727 -1 l 68 -1 l 68 1096 l 727 1096 z "},"f":{"ha":754,"x_min":68,"x_max":727,"o":"m 727 1096 l 727 877 l 288 877 l 288 656 l 617 656 l 617 437 l 288 437 l 288 -1 l 68 -1 l 68 1096 l 727 1096 z "},"g":{"ha":1162,"x_min":27,"x_max":1154,"o":"m 582 1100 q 975 938 810 1100 l 818 781 q 583 880 718 880 q 349 781 446 880 q 251 546 251 684 q 349 311 251 408 q 583 213 445 213 q 768 270 685 213 q 883 404 845 322 l 571 404 l 571 614 l 1133 614 q 973 154 1154 334 q 581 -8 810 -8 q 190 154 351 -8 q 27 546 27 315 q 190 939 27 774 q 581 1102 351 1102 l 582 1100 z "},"h":{"ha":939,"x_min":68,"x_max":871,"o":"m 287 1093 l 287 656 l 652 656 l 652 1093 l 871 1093 l 871 0 l 652 0 l 652 438 l 287 438 l 287 0 l 68 0 l 68 1093 l 287 1093 z "},"i":{"ha":355,"x_min":68,"x_max":288,"o":"m 68 1093 l 288 1093 l 288 0 l 68 0 l 68 1093 z "},"j":{"ha":784,"x_min":27,"x_max":716,"o":"m 279 208 q 433 274 369 208 q 496 429 496 339 l 496 648 l 492 1093 l 712 1093 l 716 652 l 716 427 q 587 116 716 243 q 280 -12 459 -9 l 273 -12 q 27 64 134 -10 l 138 257 q 274 208 196 208 l 279 208 z "},"k":{"ha":900,"x_min":68,"x_max":873,"o":"m 287 1093 l 287 610 l 567 1093 l 821 1093 l 497 538 l 873 0 l 606 0 l 287 458 l 287 0 l 68 0 l 68 1093 l 287 1093 z "},"l":{"ha":754,"x_min":68,"x_max":727,"o":"m 288 1093 l 288 218 l 727 218 l 727 0 l 68 0 l 68 1093 l 288 1093 z "},"m":{"ha":1206,"x_min":68,"x_max":1139,"o":"m 604 385 l 1139 1119 l 1139 0 l 919 0 l 919 453 l 604 18 l 288 453 l 288 0 l 68 0 l 68 1119 l 604 385 z "},"n":{"ha":1015,"x_min":68,"x_max":947,"o":"m 726 489 l 726 1096 l 947 1096 l 947 -22 l 288 606 l 288 -1 l 68 -1 l 68 1116 l 726 489 z "},"o":{"ha":1163,"x_min":27,"x_max":1137,"o":"m 582 1102 q 974 939 810 1102 q 1137 546 1137 775 q 974 154 1137 316 q 582 -7 811 -7 q 190 154 352 -7 q 27 546 27 317 q 190 939 27 774 q 582 1102 353 1102 m 582 880 q 347 783 443 880 q 249 547 249 684 q 347 312 249 410 q 582 215 444 215 q 817 312 718 215 q 915 547 915 409 q 817 783 915 684 q 582 880 719 880 z "},"p":{"ha":863,"x_min":68,"x_max":836,"o":"m 68 1093 l 452 1093 q 723 981 611 1093 q 836 710 836 869 q 723 440 836 550 q 452 328 610 328 l 288 328 l 288 0 l 68 0 l 68 1093 m 616 710 q 568 826 616 777 q 452 876 519 876 l 288 876 l 288 546 l 452 545 q 568 594 519 545 q 616 710 616 643 z "},"q":{"ha":1200,"x_min":27,"x_max":1173,"o":"m 1155 -52 q 816 43 941 -37 q 581 -7 711 -7 q 190 155 350 -7 q 27 546 27 316 q 190 939 27 774 q 581 1102 351 1102 q 974 939 810 1102 q 1137 546 1137 774 q 1008 192 1137 343 q 1173 163 1074 169 l 1155 -52 m 467 525 q 642 477 564 517 q 829 326 739 425 q 914 548 914 419 q 817 783 914 685 q 581 880 718 880 q 347 783 443 880 q 249 548 249 685 q 347 313 249 409 q 581 215 443 215 q 631 218 604 215 q 542 286 578 267 q 454 309 503 306 l 467 525 z "},"r":{"ha":897,"x_min":68,"x_max":871,"o":"m 68 1093 l 425 1093 q 711 982 598 1093 q 789 878 766 927 q 817 734 817 819 l 817 705 q 747 497 817 595 q 616 396 698 428 l 871 0 l 602 0 l 288 484 l 288 0 l 68 0 l 68 1093 m 446 573 q 548 618 505 573 q 590 727 590 664 q 547 832 590 787 q 411 876 502 876 l 288 876 l 288 574 l 372 574 l 372 573 l 446 573 z "},"s":{"ha":751,"x_min":27,"x_max":724,"o":"m 372 215 q 459 248 420 215 q 500 326 500 282 q 424 424 500 390 q 355 448 399 435 l 338 452 l 321 457 q 290 466 302 462 q 115 579 183 503 q 39 770 39 664 q 138 1006 39 908 q 374 1103 235 1103 q 593 1020 499 1103 q 703 816 686 939 l 485 770 q 452 848 485 815 q 375 880 420 880 q 296 848 329 880 q 263 769 263 814 q 335 667 263 705 q 401 641 361 653 q 433 631 414 637 l 449 627 l 464 622 q 646 515 575 590 q 724 325 724 433 q 618 90 724 189 q 374 -8 514 -8 q 146 74 247 -8 q 27 279 46 157 l 245 325 q 286 247 245 281 q 374 214 326 214 l 372 215 z "},"t":{"ha":812,"x_min":27,"x_max":785,"o":"m 785 1093 l 785 876 l 517 876 l 517 0 l 296 0 l 296 876 l 27 876 l 27 1093 l 785 1093 z "},"u":{"ha":1020,"x_min":68,"x_max":952,"o":"m 510 212 q 665 277 600 212 q 731 432 731 343 l 731 1093 l 952 1093 l 952 431 q 823 119 952 248 q 511 -10 692 -10 q 197 119 327 -10 q 68 431 68 248 l 68 1093 l 289 1093 l 289 432 q 355 277 289 342 q 510 212 420 212 z "},"v":{"ha":1042,"x_min":27,"x_max":1015,"o":"m 520 -24 l 27 1093 l 260 1093 l 519 494 l 780 1093 l 1015 1093 l 520 -24 z "},"w":{"ha":1337,"x_min":27,"x_max":1310,"o":"m 264 1093 l 466 576 l 669 1093 l 871 576 l 1072 1093 l 1310 1093 l 871 -24 l 666 519 l 466 -24 l 27 1093 l 264 1093 z "},"x":{"ha":932,"x_min":27,"x_max":905,"o":"m 279 1093 l 466 768 l 653 1093 l 905 1093 l 592 547 l 905 0 l 653 0 l 466 326 l 279 0 l 27 1 l 339 547 l 27 1093 l 279 1093 z "},"y":{"ha":950,"x_min":27,"x_max":923,"o":"m 275 1093 l 475 714 l 674 1093 l 923 1093 l 584 469 l 584 0 l 366 0 l 366 469 l 27 1093 l 275 1093 z "},"z":{"ha":823,"x_min":27,"x_max":796,"o":"m 796 1093 l 376 218 l 796 218 l 796 0 l 27 0 l 448 876 l 27 876 l 27 1093 l 796 1093 z "},"{":{"ha":680,"x_min":68,"x_max":612,"o":"m 68 547 q 148 739 68 659 q 340 820 228 820 q 532 740 452 820 q 612 547 612 660 q 532 354 612 433 q 340 274 452 274 q 148 354 228 274 q 68 547 68 434 m 452 546 q 419 626 452 592 q 340 659 387 659 q 261 626 294 659 q 228 546 228 593 q 261 467 228 500 q 340 433 294 433 q 419 467 387 433 q 452 546 452 500 z "},"|":{"ha":402,"x_min":136,"x_max":267,"o":"m 267 1233 l 267 -139 l 136 -139 l 136 1233 l 267 1233 z "},"}":{"ha":680,"x_min":68,"x_max":612,"o":"m 68 547 q 148 739 68 659 q 340 820 228 820 q 532 740 452 820 q 612 547 612 660 q 532 354 612 433 q 340 274 452 274 q 148 354 228 274 q 68 547 68 434 m 452 546 q 419 626 452 592 q 340 659 387 659 q 261 626 294 659 q 228 546 228 593 q 261 467 228 500 q 340 433 294 433 q 419 467 387 433 q 452 546 452 500 z "},"~":{"ha":841,"x_min":41,"x_max":800,"o":"m 800 475 q 657 401 732 391 q 420 469 583 410 q 189 510 247 530 q 45 404 130 490 l 41 588 q 184 690 114 667 q 445 631 254 712 q 677 580 620 556 q 800 675 735 603 l 798 476 l 800 475 z "},"":{"ha":1351,"x_min":0,"x_max":0,"o":""},"¡":{"ha":403,"x_min":61,"x_max":342,"o":"m 201 687 q 102 726 143 687 q 61 824 61 766 q 102 923 61 882 q 201 964 144 964 q 300 924 259 964 q 342 827 342 884 q 300 728 342 770 q 201 687 259 687 m 73 -163 q 83 33 77 -81 l 87 128 l 93 223 q 109 613 104 453 l 292 613 l 327 -163 l 73 -163 z "},"¢":{"ha":861,"x_min":27,"x_max":834,"o":"m 834 210 q 556 74 716 92 l 556 -140 l 413 -140 l 413 79 q 166 210 273 102 q 27 545 27 348 q 166 878 27 740 q 413 1010 273 986 l 413 1234 l 556 1235 l 556 1015 q 834 880 713 996 l 700 746 q 498 829 614 829 q 298 746 380 829 q 216 545 216 662 q 298 344 216 427 q 498 261 381 261 q 700 345 617 261 l 834 210 z "},"£":{"ha":779,"x_min":27,"x_max":751,"o":"m 536 879 q 382 813 446 879 q 318 659 318 748 l 318 581 l 547 581 l 547 458 l 318 458 l 318 298 l 317 298 l 317 218 l 751 218 l 751 0 l 42 0 l 42 218 l 99 218 l 99 458 l 27 458 l 27 581 l 99 581 l 99 597 l 98 660 q 227 970 98 841 q 533 1098 354 1095 l 541 1098 q 640 1087 610 1097 q 736 1053 669 1077 l 625 861 q 541 879 591 878 l 536 879 z "},"¤":{"ha":786,"x_min":40,"x_max":745,"o":"m 505 546 q 486 609 506 581 q 437 649 467 635 q 374 658 406 663 q 315 627 340 652 q 281 548 282 595 q 313 469 281 501 q 392 435 346 435 q 472 467 439 435 q 505 546 505 500 m 245 776 q 395 819 312 819 q 544 775 477 819 l 666 895 l 745 817 l 623 696 q 667 545 668 628 q 621 395 667 462 l 741 273 l 663 195 l 542 317 q 390 274 473 273 q 241 321 307 275 l 117 200 l 40 279 l 163 399 q 121 549 120 467 q 167 698 123 631 l 46 821 l 125 899 l 245 776 z "},"¥":{"ha":956,"x_min":41,"x_max":915,"o":"m 289 1093 l 477 747 l 666 1093 l 915 1093 l 636 582 l 906 582 l 906 447 l 587 447 l 587 374 l 906 374 l 906 239 l 587 239 l 587 0 l 368 0 l 368 239 l 50 239 l 50 374 l 368 374 l 368 447 l 50 447 l 50 582 l 319 582 l 41 1093 l 289 1093 z "},"¦":{"ha":402,"x_min":136,"x_max":267,"o":"m 267 1233 l 267 643 l 136 643 l 136 1233 l 267 1233 m 267 -139 l 136 -139 l 136 450 l 267 450 l 267 -139 z "},"§":{"ha":767,"x_min":54,"x_max":712,"o":"m 275 551 q 378 455 286 457 q 491 543 472 453 q 387 638 479 634 q 275 551 294 642 m 712 563 q 595 313 712 418 q 698 187 671 252 q 709 115 709 159 q 613 -116 709 -20 q 382 -212 517 -212 q 151 -116 245 -212 q 54 115 54 -20 l 272 115 q 304 37 272 70 q 381 5 336 5 l 380 7 q 485 80 449 7 q 435 184 521 153 q 389 201 406 195 q 376 205 382 203 l 372 207 l 367 209 q 300 233 345 216 q 98 382 176 275 q 54 531 54 442 q 168 779 54 677 q 67 907 94 840 q 56 979 56 935 q 153 1210 56 1114 q 384 1306 248 1306 q 615 1210 519 1306 q 711 979 711 1114 l 494 979 q 462 1055 494 1023 q 385 1088 429 1088 q 309 1055 341 1088 q 276 979 276 1023 q 288 938 276 949 q 338 901 299 926 q 385 876 376 878 q 457 854 399 871 q 667 713 585 818 q 712 563 712 654 z "},"¨":{"ha":1351,"x_min":47,"x_max":1303,"o":"m 325 309 l 370 681 l 257 547 l 177 681 l 160 542 l 92 542 l 134 884 l 271 660 l 464 884 q 374 153 413 469 l 195 345 l 173 159 l 105 159 l 147 503 l 325 309 m 633 652 l 612 722 l 573 652 l 633 652 m 538 591 l 509 542 l 437 542 l 632 884 l 744 542 q 779 427 758 496 l 815 312 l 917 496 l 989 496 l 795 153 l 686 496 l 668 547 l 653 593 l 538 593 l 538 591 m 768 541 q 797 760 781 633 l 811 877 l 920 877 q 1004 843 974 877 q 1025 755 1033 809 q 998 695 1021 722 q 943 658 976 669 l 1004 541 l 922 541 l 852 673 l 836 541 l 768 541 m 907 715 q 951 745 935 715 q 947 797 966 774 q 907 810 935 810 l 870 810 q 859 715 865 764 l 907 715 m 1196 779 q 1187 804 1196 793 q 1165 813 1179 813 q 1131 789 1141 813 q 1139 751 1119 766 q 1177 733 1155 739 q 1227 702 1210 721 q 1247 640 1251 677 q 1208 570 1242 600 q 1133 539 1175 539 q 1064 568 1090 539 q 1042 640 1037 598 l 1111 640 q 1118 616 1108 626 q 1141 606 1126 606 q 1166 616 1155 606 q 1179 640 1177 627 q 1168 665 1181 657 q 1156 671 1164 668 l 1149 674 l 1143 677 l 1143 680 q 1083 711 1103 693 q 1059 779 1055 738 q 1097 848 1064 819 q 1174 879 1131 879 q 1241 850 1215 879 q 1263 779 1268 821 l 1196 779 m 668 498 l 660 431 l 526 431 l 517 362 l 618 362 l 610 295 l 509 295 l 500 227 l 635 227 l 627 160 l 425 160 l 467 498 l 668 498 m 1303 1042 l 1303 52 l 47 52 l 47 1042 l 1303 1042 m 70 1019 l 70 73 l 1282 73 l 1282 1019 l 70 1019 z "},"©":{"ha":719,"x_min":54,"x_max":665,"o":"m 359 1093 q 575 1004 486 1093 q 665 788 665 915 q 575 572 665 662 q 359 483 486 483 q 144 572 233 483 q 54 788 54 662 q 144 1004 54 915 q 359 1093 232 1093 m 359 618 q 239 668 289 618 q 189 788 189 718 q 239 908 189 858 q 359 959 289 959 l 359 958 q 480 908 426 958 l 431 860 q 359 890 401 890 q 288 860 318 890 q 257 788 257 830 q 288 715 257 746 q 359 686 317 686 q 432 715 401 686 l 480 667 q 359 618 428 618 m 601 788 q 530 959 601 888 q 359 1030 458 1030 q 189 959 260 1030 q 118 788 118 888 q 189 618 118 689 q 359 547 260 547 q 530 618 458 547 q 601 788 601 689 z "},"«":{"ha":966,"x_min":67,"x_max":898,"o":"m 67 441 l 440 122 l 545 202 l 301 441 l 545 680 l 440 760 l 67 441 m 420 441 l 793 122 l 898 202 l 654 441 l 898 680 l 793 760 l 420 441 z "},"¬":{"ha":1351,"x_min":47,"x_max":1303,"o":"m 325 309 l 370 681 l 257 547 l 177 681 l 160 542 l 92 542 l 134 884 l 271 660 l 464 884 q 374 153 413 469 l 195 345 l 173 159 l 105 159 l 147 503 l 325 309 m 633 652 l 612 722 l 573 652 l 633 652 m 538 591 l 509 542 l 437 542 l 632 884 l 744 542 q 779 427 758 496 l 815 312 l 917 496 l 989 496 l 795 153 l 686 496 l 668 547 l 653 593 l 538 593 l 538 591 m 768 541 q 797 760 781 633 l 811 877 l 920 877 q 1004 843 974 877 q 1025 755 1033 809 q 998 695 1021 722 q 943 658 976 669 l 1004 541 l 922 541 l 852 673 l 836 541 l 768 541 m 907 715 q 951 745 935 715 q 947 797 966 774 q 907 810 935 810 l 870 810 q 859 715 865 764 l 907 715 m 1196 779 q 1187 804 1196 793 q 1165 813 1179 813 q 1131 789 1141 813 q 1139 751 1119 766 q 1177 733 1155 739 q 1227 702 1210 721 q 1247 640 1251 677 q 1208 570 1242 600 q 1133 539 1175 539 q 1064 568 1090 539 q 1042 640 1037 598 l 1111 640 q 1118 616 1108 626 q 1141 606 1126 606 q 1166 616 1155 606 q 1179 640 1177 627 q 1168 665 1181 657 q 1156 671 1164 668 l 1149 674 l 1143 677 l 1143 680 q 1083 711 1103 693 q 1059 779 1055 738 q 1097 848 1064 819 q 1174 879 1131 879 q 1241 850 1215 879 q 1263 779 1268 821 l 1196 779 m 668 498 l 660 431 l 526 431 l 517 362 l 618 362 l 610 295 l 509 295 l 500 227 l 635 227 l 627 160 l 425 160 l 467 498 l 668 498 m 1303 1042 l 1303 52 l 47 52 l 47 1042 l 1303 1042 m 70 1019 l 70 73 l 1282 73 l 1282 1019 l 70 1019 z "},"®":{"ha":719,"x_min":54,"x_max":665,"o":"m 359 1093 q 575 1004 486 1093 q 665 788 665 915 q 575 572 665 662 q 359 483 486 483 q 144 572 233 483 q 54 788 54 662 q 144 1004 54 915 q 359 1093 232 1093 m 478 836 q 458 774 478 801 q 408 737 439 749 l 484 620 l 402 620 l 315 752 l 315 620 l 248 620 l 248 958 l 357 958 q 442 926 408 958 q 478 846 478 893 l 478 836 m 408 844 q 353 890 408 890 l 315 890 l 315 795 l 363 795 q 395 809 382 795 q 408 844 408 823 m 601 788 q 530 959 601 888 q 359 1030 458 1030 q 189 959 260 1030 q 118 788 118 888 q 189 618 118 689 q 359 547 260 547 q 530 618 458 547 q 601 788 601 689 z "},"¯":{"ha":1351,"x_min":47,"x_max":1303,"o":"m 325 309 l 370 681 l 257 547 l 177 681 l 160 542 l 92 542 l 134 884 l 271 660 l 464 884 q 374 153 413 469 l 195 345 l 173 159 l 105 159 l 147 503 l 325 309 m 633 652 l 612 722 l 573 652 l 633 652 m 538 591 l 509 542 l 437 542 l 632 884 l 744 542 q 779 427 758 496 l 815 312 l 917 496 l 989 496 l 795 153 l 686 496 l 668 547 l 653 593 l 538 593 l 538 591 m 768 541 q 797 760 781 633 l 811 877 l 920 877 q 1004 843 974 877 q 1025 755 1033 809 q 998 695 1021 722 q 943 658 976 669 l 1004 541 l 922 541 l 852 673 l 836 541 l 768 541 m 907 715 q 951 745 935 715 q 947 797 966 774 q 907 810 935 810 l 870 810 q 859 715 865 764 l 907 715 m 1196 779 q 1187 804 1196 793 q 1165 813 1179 813 q 1131 789 1141 813 q 1139 751 1119 766 q 1177 733 1155 739 q 1227 702 1210 721 q 1247 640 1251 677 q 1208 570 1242 600 q 1133 539 1175 539 q 1064 568 1090 539 q 1042 640 1037 598 l 1111 640 q 1118 616 1108 626 q 1141 606 1126 606 q 1166 616 1155 606 q 1179 640 1177 627 q 1168 665 1181 657 q 1156 671 1164 668 l 1149 674 l 1143 677 l 1143 680 q 1083 711 1103 693 q 1059 779 1055 738 q 1097 848 1064 819 q 1174 879 1131 879 q 1241 850 1215 879 q 1263 779 1268 821 l 1196 779 m 668 498 l 660 431 l 526 431 l 517 362 l 618 362 l 610 295 l 509 295 l 500 227 l 635 227 l 627 160 l 425 160 l 467 498 l 668 498 m 1303 1042 l 1303 52 l 47 52 l 47 1042 l 1303 1042 m 70 1019 l 70 73 l 1282 73 l 1282 1019 l 70 1019 z "},"°":{"ha":464,"x_min":41,"x_max":423,"o":"m 326 1012 q 298 1078 326 1050 q 232 1106 271 1106 q 165 1078 193 1106 q 138 1012 138 1050 q 165 945 138 972 q 232 918 193 918 q 298 945 271 918 q 326 1012 326 973 m 41 1011 q 97 1146 41 1089 q 232 1203 154 1203 q 367 1146 310 1203 q 423 1011 423 1090 q 367 876 423 932 q 232 820 310 820 q 97 876 154 820 q 41 1011 41 933 z "},"±":{"ha":1351,"x_min":47,"x_max":1303,"o":"m 325 309 l 370 681 l 257 547 l 177 681 l 160 542 l 92 542 l 134 884 l 271 660 l 464 884 q 374 153 413 469 l 195 345 l 173 159 l 105 159 l 147 503 l 325 309 m 633 652 l 612 722 l 573 652 l 633 652 m 538 591 l 509 542 l 437 542 l 632 884 l 744 542 q 779 427 758 496 l 815 312 l 917 496 l 989 496 l 795 153 l 686 496 l 668 547 l 653 593 l 538 593 l 538 591 m 768 541 q 797 760 781 633 l 811 877 l 920 877 q 1004 843 974 877 q 1025 755 1033 809 q 998 695 1021 722 q 943 658 976 669 l 1004 541 l 922 541 l 852 673 l 836 541 l 768 541 m 907 715 q 951 745 935 715 q 947 797 966 774 q 907 810 935 810 l 870 810 q 859 715 865 764 l 907 715 m 1196 779 q 1187 804 1196 793 q 1165 813 1179 813 q 1131 789 1141 813 q 1139 751 1119 766 q 1177 733 1155 739 q 1227 702 1210 721 q 1247 640 1251 677 q 1208 570 1242 600 q 1133 539 1175 539 q 1064 568 1090 539 q 1042 640 1037 598 l 1111 640 q 1118 616 1108 626 q 1141 606 1126 606 q 1166 616 1155 606 q 1179 640 1177 627 q 1168 665 1181 657 q 1156 671 1164 668 l 1149 674 l 1143 677 l 1143 680 q 1083 711 1103 693 q 1059 779 1055 738 q 1097 848 1064 819 q 1174 879 1131 879 q 1241 850 1215 879 q 1263 779 1268 821 l 1196 779 m 668 498 l 660 431 l 526 431 l 517 362 l 618 362 l 610 295 l 509 295 l 500 227 l 635 227 l 627 160 l 425 160 l 467 498 l 668 498 m 1303 1042 l 1303 52 l 47 52 l 47 1042 l 1303 1042 m 70 1019 l 70 73 l 1282 73 l 1282 1019 l 70 1019 z "},"²":{"ha":1351,"x_min":47,"x_max":1303,"o":"m 325 309 l 370 681 l 257 547 l 177 681 l 160 542 l 92 542 l 134 884 l 271 660 l 464 884 q 374 153 413 468 l 195 345 l 173 159 l 105 159 l 147 503 l 325 309 m 633 652 l 612 722 l 573 652 l 633 652 m 538 591 l 509 542 l 437 542 l 632 884 l 744 542 q 779 427 758 496 l 815 312 l 917 496 l 989 496 l 795 153 l 686 496 l 668 547 l 653 593 l 538 593 l 538 591 m 768 541 q 797 760 781 633 l 811 877 l 920 877 q 1004 843 974 877 q 1025 755 1033 809 q 998 695 1021 722 q 943 658 976 669 l 1004 541 l 922 541 l 852 673 l 836 541 l 768 541 m 907 715 q 951 745 935 715 q 947 797 966 774 q 907 810 935 810 l 870 810 q 859 715 865 764 l 907 715 m 1196 779 q 1187 804 1196 793 q 1165 813 1179 813 q 1131 789 1141 813 q 1139 751 1119 766 q 1177 733 1155 739 q 1227 702 1210 721 q 1247 640 1251 677 q 1208 570 1242 600 q 1133 539 1175 539 q 1064 568 1090 539 q 1042 640 1037 598 l 1111 640 q 1118 616 1108 626 q 1141 606 1126 606 q 1166 616 1155 606 q 1179 640 1177 627 q 1168 665 1181 657 q 1156 671 1164 668 l 1149 674 l 1143 677 l 1143 680 q 1083 711 1103 693 q 1059 779 1055 738 q 1097 848 1064 819 q 1174 879 1131 879 q 1241 850 1215 879 q 1263 779 1268 821 l 1196 779 m 668 498 l 660 431 l 526 431 l 517 362 l 618 362 l 610 295 l 509 295 l 500 227 l 635 227 l 627 160 l 425 160 l 467 498 l 668 498 m 1303 1042 l 1303 52 l 47 52 l 47 1042 l 1303 1042 m 70 1019 l 70 73 l 1282 73 l 1282 1019 l 70 1019 z "},"³":{"ha":1351,"x_min":47,"x_max":1303,"o":"m 325 309 l 370 681 l 257 547 l 177 681 l 160 542 l 92 542 l 134 884 l 271 660 l 464 884 q 374 153 413 468 l 195 345 l 173 159 l 105 159 l 147 503 l 325 309 m 633 652 l 612 722 l 573 652 l 633 652 m 538 591 l 509 542 l 437 542 l 632 884 l 744 542 q 779 427 758 496 l 815 312 l 917 496 l 989 496 l 795 153 l 686 496 l 668 547 l 653 593 l 538 593 l 538 591 m 768 541 q 797 760 781 633 l 811 877 l 920 877 q 1004 843 974 877 q 1025 755 1033 809 q 998 695 1021 722 q 943 658 976 669 l 1004 541 l 922 541 l 852 673 l 836 541 l 768 541 m 907 715 q 951 745 935 715 q 947 797 966 774 q 907 810 935 810 l 870 810 q 859 715 865 764 l 907 715 m 1196 779 q 1187 804 1196 793 q 1165 813 1179 813 q 1131 789 1141 813 q 1139 751 1119 766 q 1177 733 1155 739 q 1227 702 1210 721 q 1247 640 1251 677 q 1208 570 1242 600 q 1133 539 1175 539 q 1064 568 1090 539 q 1042 640 1037 598 l 1111 640 q 1118 616 1108 626 q 1141 606 1126 606 q 1166 616 1155 606 q 1179 640 1177 627 q 1168 665 1181 657 q 1156 671 1164 668 l 1149 674 l 1143 677 l 1143 680 q 1083 711 1103 693 q 1059 779 1055 738 q 1097 848 1064 819 q 1174 879 1131 879 q 1241 850 1215 879 q 1263 779 1268 821 l 1196 779 m 668 498 l 660 431 l 526 431 l 517 362 l 618 362 l 610 295 l 509 295 l 500 227 l 635 227 l 627 160 l 425 160 l 467 498 l 668 498 m 1303 1042 l 1303 52 l 47 52 l 47 1042 l 1303 1042 m 70 1019 l 70 73 l 1282 73 l 1282 1019 l 70 1019 z "},"´":{"ha":1351,"x_min":47,"x_max":1303,"o":"m 325 309 l 370 681 l 257 547 l 177 681 l 160 542 l 92 542 l 134 884 l 271 660 l 464 884 q 374 153 413 468 l 195 345 l 173 159 l 105 159 l 147 503 l 325 309 m 633 652 l 612 722 l 573 652 l 633 652 m 538 591 l 509 542 l 437 542 l 632 884 l 744 542 q 779 427 758 496 l 815 312 l 917 496 l 989 496 l 795 153 l 686 496 l 668 547 l 653 593 l 538 593 l 538 591 m 768 541 q 797 760 781 633 l 811 877 l 920 877 q 1004 843 974 877 q 1025 755 1033 809 q 998 695 1021 722 q 943 658 976 669 l 1004 541 l 922 541 l 852 673 l 836 541 l 768 541 m 907 715 q 951 745 935 715 q 947 797 966 774 q 907 810 935 810 l 870 810 q 859 715 865 764 l 907 715 m 1196 779 q 1187 804 1196 793 q 1165 813 1179 813 q 1131 789 1141 813 q 1139 751 1119 766 q 1177 733 1155 739 q 1227 702 1210 721 q 1247 640 1251 677 q 1208 570 1242 600 q 1133 539 1175 539 q 1064 568 1090 539 q 1042 640 1037 598 l 1111 640 q 1118 616 1108 626 q 1141 606 1126 606 q 1166 616 1155 606 q 1179 640 1177 627 q 1168 665 1181 657 q 1156 671 1164 668 l 1149 674 l 1143 677 l 1143 680 q 1083 711 1103 693 q 1059 779 1055 738 q 1097 848 1064 819 q 1174 879 1131 879 q 1241 850 1215 879 q 1263 779 1268 821 l 1196 779 m 668 498 l 660 431 l 526 431 l 517 362 l 618 362 l 610 295 l 509 295 l 500 227 l 635 227 l 627 160 l 425 160 l 467 498 l 668 498 m 1303 1042 l 1303 52 l 47 52 l 47 1042 l 1303 1042 m 70 1019 l 70 73 l 1282 73 l 1282 1019 l 70 1019 z "},"µ":{"ha":1351,"x_min":47,"x_max":1303,"o":"m 325 309 l 370 681 l 257 547 l 177 681 l 160 542 l 92 542 l 134 884 l 271 660 l 464 884 q 374 153 413 468 l 195 345 l 173 159 l 105 159 l 147 503 l 325 309 m 633 652 l 612 722 l 573 652 l 633 652 m 538 591 l 509 542 l 437 542 l 632 884 l 744 542 q 779 427 758 496 l 815 312 l 917 496 l 989 496 l 795 153 l 686 496 l 668 547 l 653 593 l 538 593 l 538 591 m 768 541 q 797 760 781 633 l 811 877 l 920 877 q 1004 843 974 877 q 1025 755 1033 809 q 998 695 1021 722 q 943 658 976 669 l 1004 541 l 922 541 l 852 673 l 836 541 l 768 541 m 907 715 q 951 745 935 715 q 947 797 966 774 q 907 810 935 810 l 870 810 q 859 715 865 764 l 907 715 m 1196 779 q 1187 804 1196 793 q 1165 813 1179 813 q 1131 789 1141 813 q 1139 751 1119 766 q 1177 733 1155 739 q 1227 702 1210 721 q 1247 640 1251 677 q 1208 570 1242 600 q 1133 539 1175 539 q 1064 568 1090 539 q 1042 640 1037 598 l 1111 640 q 1118 616 1108 626 q 1141 606 1126 606 q 1166 616 1155 606 q 1179 640 1177 627 q 1168 665 1181 657 q 1156 671 1164 668 l 1149 674 l 1143 677 l 1143 680 q 1083 711 1103 693 q 1059 779 1055 738 q 1097 848 1064 819 q 1174 879 1131 879 q 1241 850 1215 879 q 1263 779 1268 821 l 1196 779 m 668 498 l 660 431 l 526 431 l 517 362 l 618 362 l 610 295 l 509 295 l 500 227 l 635 227 l 627 160 l 425 160 l 467 498 l 668 498 m 1303 1042 l 1303 52 l 47 52 l 47 1042 l 1303 1042 m 70 1019 l 70 73 l 1282 73 l 1282 1019 l 70 1019 z "},"¶":{"ha":1351,"x_min":47,"x_max":1303,"o":"m 325 309 l 370 681 l 257 547 l 177 681 l 160 542 l 92 542 l 134 884 l 271 660 l 464 884 q 374 153 413 469 l 195 345 l 173 159 l 105 159 l 147 503 l 325 309 m 633 652 l 612 722 l 573 652 l 633 652 m 538 591 l 509 542 l 437 542 l 632 884 l 744 542 q 779 427 758 496 l 815 312 l 917 496 l 989 496 l 795 153 l 686 496 l 668 547 l 653 593 l 538 593 l 538 591 m 768 541 q 797 760 781 633 l 811 877 l 920 877 q 1004 843 974 877 q 1025 755 1033 809 q 998 695 1021 722 q 943 658 976 669 l 1004 541 l 922 541 l 852 673 l 836 541 l 768 541 m 907 715 q 951 745 935 715 q 947 797 966 774 q 907 810 935 810 l 870 810 q 859 715 865 764 l 907 715 m 1196 779 q 1187 804 1196 793 q 1165 813 1179 813 q 1131 789 1141 813 q 1139 751 1119 766 q 1177 733 1155 739 q 1227 702 1210 721 q 1247 640 1251 677 q 1208 570 1242 600 q 1133 539 1175 539 q 1064 568 1090 539 q 1042 640 1037 598 l 1111 640 q 1118 616 1108 626 q 1141 606 1126 606 q 1166 616 1155 606 q 1179 640 1177 627 q 1168 665 1181 657 q 1156 671 1164 668 l 1149 674 l 1143 677 l 1143 680 q 1083 711 1103 693 q 1059 779 1055 738 q 1097 848 1064 819 q 1174 879 1131 879 q 1241 850 1215 879 q 1263 779 1268 821 l 1196 779 m 668 498 l 660 431 l 526 431 l 517 362 l 618 362 l 610 295 l 509 295 l 500 227 l 635 227 l 627 160 l 425 160 l 467 498 l 668 498 m 1303 1042 l 1303 52 l 47 52 l 47 1042 l 1303 1042 m 70 1019 l 70 73 l 1282 73 l 1282 1019 l 70 1019 z "},"»":{"ha":966,"x_min":67,"x_max":898,"o":"m 898 441 l 525 122 l 420 202 l 663 441 l 420 680 l 525 760 l 898 441 m 545 441 l 172 122 l 67 202 l 311 441 l 67 680 l 172 760 l 545 441 z "},"¼":{"ha":1351,"x_min":47,"x_max":1303,"o":"m 325 309 l 370 681 l 257 547 l 177 681 l 160 542 l 92 542 l 134 884 l 271 660 l 464 884 q 374 153 413 468 l 195 345 l 173 159 l 105 159 l 147 503 l 325 309 m 633 652 l 612 722 l 573 652 l 633 652 m 538 591 l 509 542 l 437 542 l 632 884 l 744 542 q 779 427 758 496 l 815 312 l 917 496 l 989 496 l 795 153 l 686 496 l 668 547 l 653 593 l 538 593 l 538 591 m 768 541 q 797 760 781 633 l 811 877 l 920 877 q 1004 843 974 877 q 1025 755 1033 809 q 998 695 1021 722 q 943 658 976 669 l 1004 541 l 922 541 l 852 673 l 836 541 l 768 541 m 907 715 q 951 745 935 715 q 947 797 966 774 q 907 810 935 810 l 870 810 q 859 715 865 764 l 907 715 m 1196 779 q 1187 804 1196 793 q 1165 813 1179 813 q 1131 789 1141 813 q 1139 751 1119 766 q 1177 733 1155 739 q 1227 702 1210 721 q 1247 640 1251 677 q 1208 570 1242 600 q 1133 539 1175 539 q 1064 568 1090 539 q 1042 640 1037 598 l 1111 640 q 1118 616 1108 626 q 1141 606 1126 606 q 1166 616 1155 606 q 1179 640 1177 627 q 1168 665 1181 657 q 1156 671 1164 668 l 1149 674 l 1143 677 l 1143 680 q 1083 711 1103 693 q 1059 779 1055 738 q 1097 848 1064 819 q 1174 879 1131 879 q 1241 850 1215 879 q 1263 779 1268 821 l 1196 779 m 668 498 l 660 431 l 526 431 l 517 362 l 618 362 l 610 295 l 509 295 l 500 227 l 635 227 l 627 160 l 425 160 l 467 498 l 668 498 m 1303 1042 l 1303 52 l 47 52 l 47 1042 l 1303 1042 m 70 1019 l 70 73 l 1282 73 l 1282 1019 l 70 1019 z "},"½":{"ha":1351,"x_min":47,"x_max":1303,"o":"m 325 309 l 370 681 l 257 547 l 177 681 l 160 542 l 92 542 l 134 884 l 271 660 l 464 884 q 374 153 413 468 l 195 345 l 173 159 l 105 159 l 147 503 l 325 309 m 633 652 l 612 722 l 573 652 l 633 652 m 538 591 l 509 542 l 437 542 l 632 884 l 744 542 q 779 427 758 496 l 815 312 l 917 496 l 989 496 l 795 153 l 686 496 l 668 547 l 653 593 l 538 593 l 538 591 m 768 541 q 797 760 781 633 l 811 877 l 920 877 q 1004 843 974 877 q 1025 755 1033 809 q 998 695 1021 722 q 943 658 976 669 l 1004 541 l 922 541 l 852 673 l 836 541 l 768 541 m 907 715 q 951 745 935 715 q 947 797 966 774 q 907 810 935 810 l 870 810 q 859 715 865 764 l 907 715 m 1196 779 q 1187 804 1196 793 q 1165 813 1179 813 q 1131 789 1141 813 q 1139 751 1119 766 q 1177 733 1155 739 q 1227 702 1210 721 q 1247 640 1251 677 q 1208 570 1242 600 q 1133 539 1175 539 q 1064 568 1090 539 q 1042 640 1037 598 l 1111 640 q 1118 616 1108 626 q 1141 606 1126 606 q 1166 616 1155 606 q 1179 640 1177 627 q 1168 665 1181 657 q 1156 671 1164 668 l 1149 674 l 1143 677 l 1143 680 q 1083 711 1103 693 q 1059 779 1055 738 q 1097 848 1064 819 q 1174 879 1131 879 q 1241 850 1215 879 q 1263 779 1268 821 l 1196 779 m 668 498 l 660 431 l 526 431 l 517 362 l 618 362 l 610 295 l 509 295 l 500 227 l 635 227 l 627 160 l 425 160 l 467 498 l 668 498 m 1303 1042 l 1303 52 l 47 52 l 47 1042 l 1303 1042 m 70 1019 l 70 73 l 1282 73 l 1282 1019 l 70 1019 z "},"¾":{"ha":1351,"x_min":47,"x_max":1303,"o":"m 325 309 l 370 681 l 257 547 l 177 681 l 160 542 l 92 542 l 134 884 l 271 660 l 464 884 q 374 153 413 468 l 195 345 l 173 159 l 105 159 l 147 503 l 325 309 m 633 652 l 612 722 l 573 652 l 633 652 m 538 591 l 509 542 l 437 542 l 632 884 l 744 542 q 779 427 758 496 l 815 312 l 917 496 l 989 496 l 795 153 l 686 496 l 668 547 l 653 593 l 538 593 l 538 591 m 768 541 q 797 760 781 633 l 811 877 l 920 877 q 1004 843 974 877 q 1025 755 1033 809 q 998 695 1021 722 q 943 658 976 669 l 1004 541 l 922 541 l 852 673 l 836 541 l 768 541 m 907 715 q 951 745 935 715 q 947 797 966 774 q 907 810 935 810 l 870 810 q 859 715 865 764 l 907 715 m 1196 779 q 1187 804 1196 793 q 1165 813 1179 813 q 1131 789 1141 813 q 1139 751 1119 766 q 1177 733 1155 739 q 1227 702 1210 721 q 1247 640 1251 677 q 1208 570 1242 600 q 1133 539 1175 539 q 1064 568 1090 539 q 1042 640 1037 598 l 1111 640 q 1118 616 1108 626 q 1141 606 1126 606 q 1166 616 1155 606 q 1179 640 1177 627 q 1168 665 1181 657 q 1156 671 1164 668 l 1149 674 l 1143 677 l 1143 680 q 1083 711 1103 693 q 1059 779 1055 738 q 1097 848 1064 819 q 1174 879 1131 879 q 1241 850 1215 879 q 1263 779 1268 821 l 1196 779 m 668 498 l 660 431 l 526 431 l 517 362 l 618 362 l 610 295 l 509 295 l 500 227 l 635 227 l 627 160 l 425 160 l 467 498 l 668 498 m 1303 1042 l 1303 52 l 47 52 l 47 1042 l 1303 1042 m 70 1019 l 70 73 l 1282 73 l 1282 1019 l 70 1019 z "},"¿":{"ha":721,"x_min":26,"x_max":693,"o":"m 366 965 q 465 924 423 965 q 507 825 507 882 q 465 728 507 768 q 366 688 425 688 q 267 729 308 688 q 226 828 226 770 q 267 925 226 885 q 366 965 309 965 m 361 58 q 439 91 406 58 q 471 170 471 124 l 693 170 q 595 -65 693 32 q 360 -163 497 -163 q 124 -65 222 -163 q 26 170 26 33 q 56 277 26 233 q 124 357 87 322 q 232 469 181 414 q 262 621 283 522 l 486 621 l 486 602 q 452 439 486 500 q 355 317 418 380 q 286 242 321 285 q 250 170 250 198 q 283 92 250 125 q 361 58 315 58 z "},"À":{"ha":1052,"x_min":27,"x_max":1025,"o":"m 626 1259 l 547 1199 l 323 1407 l 451 1508 l 626 1259 m 526 1116 l 1025 0 l 787 0 l 713 166 l 338 166 l 264 0 l 27 0 l 526 1116 m 626 360 l 526 591 l 425 360 l 626 360 z "},"Á":{"ha":1052,"x_min":27,"x_max":1025,"o":"m 728 1407 l 505 1199 l 426 1259 l 601 1508 l 728 1407 m 526 1116 l 1025 0 l 787 0 l 713 166 l 338 166 l 264 0 l 27 0 l 526 1116 m 626 360 l 526 591 l 425 360 l 626 360 z "},"Â":{"ha":1052,"x_min":27,"x_max":1025,"o":"m 524 1468 l 704 1186 l 593 1186 l 524 1293 l 456 1186 l 346 1186 l 524 1468 m 526 1116 l 1025 0 l 787 0 l 713 166 l 338 166 l 264 0 l 27 0 l 526 1116 m 626 360 l 526 591 l 425 360 l 626 360 z "},"Ã":{"ha":1052,"x_min":27,"x_max":1025,"o":"m 792 1191 q 699 1142 747 1135 q 542 1187 650 1148 q 389 1214 428 1227 q 294 1144 349 1200 l 291 1265 q 386 1333 339 1318 q 558 1294 432 1347 q 712 1260 674 1244 q 793 1322 750 1276 l 791 1192 l 792 1191 m 526 1116 l 1025 0 l 787 0 l 713 166 l 338 166 l 264 0 l 27 0 l 526 1116 m 626 360 l 526 591 l 425 360 l 626 360 z "},"Ä":{"ha":1052,"x_min":27,"x_max":1025,"o":"m 601 1267 q 625 1325 601 1301 q 682 1350 649 1350 q 740 1325 715 1350 q 764 1267 764 1301 q 740 1210 764 1234 q 682 1186 716 1186 q 625 1210 648 1186 q 601 1267 601 1234 m 526 1116 l 1025 0 l 787 0 l 713 166 l 338 166 l 264 0 l 27 0 l 526 1116 m 626 360 l 526 591 l 425 360 l 626 360 m 295 1267 q 319 1325 295 1301 q 377 1350 344 1350 q 434 1325 410 1350 q 458 1267 458 1301 q 434 1210 458 1234 q 377 1186 410 1186 q 319 1210 343 1186 q 295 1267 295 1234 z "},"Å":{"ha":1047,"x_min":0,"x_max":998,"o":"m 372 1280 q 410 1371 372 1333 q 500 1409 448 1409 q 591 1371 553 1409 q 629 1280 629 1333 q 591 1190 629 1228 q 500 1152 553 1152 q 410 1190 448 1152 q 372 1280 372 1227 m 500 1333 q 447 1280 447 1333 q 500 1227 447 1227 q 554 1280 554 1227 q 500 1333 554 1333 m 498 1116 l 998 0 l 760 0 l 686 166 l 311 166 l 237 0 l 0 0 l 498 1116 m 599 360 l 499 591 l 398 360 l 599 360 z "},"Æ":{"ha":1385,"x_min":27,"x_max":1358,"o":"m 338 168 q 302 85 325 136 l 283 44 l 264 3 l 27 3 l 525 1098 l 1358 1098 l 1358 879 l 919 879 l 919 659 l 1248 659 l 1248 439 l 919 439 l 919 219 l 1358 219 l 1358 0 l 699 0 l 699 163 l 696 168 l 338 168 m 699 886 l 669 886 l 429 363 l 699 367 l 699 886 z "},"Ç":{"ha":1002,"x_min":27,"x_max":975,"o":"m 496 -2 q 190 154 320 22 q 27 545 27 315 q 190 939 27 774 q 581 1102 352 1102 l 581 1099 q 974 937 809 1099 l 817 780 q 582 878 719 878 q 347 780 444 878 q 250 545 250 681 q 347 309 250 408 q 582 212 444 212 q 818 310 719 212 l 975 154 q 797 35 899 78 q 665 -2 734 7 q 628 -191 665 -101 q 538 -319 593 -275 l 483 -365 l 349 -227 l 370 -219 q 445 -149 390 -212 q 496 -2 489 -98 z "},"È":{"ha":754,"x_min":68,"x_max":727,"o":"m 353 1510 l 528 1261 l 449 1201 l 225 1409 l 353 1510 m 727 1099 l 727 879 l 288 879 l 288 659 l 617 659 l 617 439 l 288 439 l 288 220 l 727 220 l 727 0 l 68 0 l 68 1099 l 727 1099 z "},"É":{"ha":754,"x_min":68,"x_max":727,"o":"m 727 1099 l 727 879 l 288 879 l 288 659 l 617 659 l 617 439 l 288 439 l 288 220 l 727 220 l 727 0 l 68 0 l 68 1099 l 727 1099 m 597 1409 l 374 1201 l 295 1261 l 470 1510 l 597 1409 z "},"Ê":{"ha":754,"x_min":68,"x_max":727,"o":"m 727 1099 l 727 879 l 288 879 l 288 659 l 617 659 l 617 439 l 288 439 l 288 220 l 727 220 l 727 0 l 68 0 l 68 1099 l 727 1099 m 399 1470 l 579 1189 l 468 1189 l 399 1296 l 331 1189 l 220 1189 l 399 1470 z "},"Ë":{"ha":754,"x_min":68,"x_max":727,"o":"m 161 1290 q 185 1348 161 1323 q 243 1372 210 1372 q 300 1348 275 1372 q 324 1290 324 1323 q 300 1232 324 1257 q 243 1208 276 1208 q 185 1232 209 1208 q 161 1290 161 1256 m 465 1290 q 490 1348 465 1323 q 547 1372 513 1372 q 604 1348 580 1372 q 629 1290 629 1323 q 604 1232 629 1257 q 547 1208 581 1208 q 489 1232 513 1208 q 465 1290 465 1256 m 727 1098 l 727 879 l 288 879 l 288 659 l 617 659 l 617 439 l 288 439 l 288 219 l 727 219 l 727 0 l 68 0 l 68 1098 l 727 1098 z "},"Ì":{"ha":389,"x_min":0,"x_max":321,"o":"m 127 1510 l 302 1261 l 224 1201 l 0 1409 l 127 1510 m 102 1099 l 321 1099 l 321 0 l 102 0 l 102 1099 z "},"Í":{"ha":399,"x_min":68,"x_max":399,"o":"m 68 1099 l 288 1099 l 288 0 l 68 0 l 68 1099 m 399 1409 l 176 1201 l 97 1261 l 272 1510 l 399 1409 z "},"Î":{"ha":386,"x_min":14,"x_max":372,"o":"m 192 1470 l 372 1189 l 261 1189 l 192 1296 l 124 1189 l 14 1189 l 192 1470 m 83 1099 l 303 1099 l 303 0 l 83 0 l 83 1099 z "},"Ï":{"ha":468,"x_min":0,"x_max":469,"o":"m 0 1290 q 24 1348 0 1323 q 81 1372 48 1372 q 139 1348 115 1372 q 163 1290 163 1323 q 139 1232 163 1256 q 81 1208 115 1208 q 24 1232 47 1208 q 0 1290 0 1256 m 306 1290 q 330 1348 306 1323 q 387 1372 354 1372 l 387 1372 q 444 1348 420 1372 q 469 1290 469 1323 q 444 1232 469 1257 q 387 1208 420 1208 q 330 1232 353 1208 q 306 1290 306 1256 m 119 1098 l 339 1098 l 339 0 l 119 0 l 119 1098 z "},"Ð":{"ha":968,"x_min":27,"x_max":941,"o":"m 394 220 q 631 310 543 220 q 721 549 721 400 q 632 789 721 700 q 392 878 544 878 l 342 878 l 342 614 l 537 613 l 537 469 l 342 470 l 342 220 l 394 220 m 393 1096 q 795 935 633 1096 q 941 547 941 787 q 795 161 941 307 q 393 0 633 0 l 123 0 l 123 470 l 27 470 l 27 614 l 123 614 l 123 1096 l 393 1096 z "},"Ñ":{"ha":1001,"x_min":61,"x_max":940,"o":"m 722 1225 q 628 1176 677 1169 q 471 1221 579 1182 q 319 1248 357 1261 q 224 1178 279 1234 l 220 1299 q 315 1367 269 1352 q 488 1328 361 1381 q 642 1294 604 1278 q 722 1356 680 1310 l 721 1225 l 722 1225 m 720 488 l 720 1095 l 940 1095 l 940 -22 l 281 605 l 281 -2 l 61 -2 l 61 1116 l 720 488 z "},"Ò":{"ha":1165,"x_min":27,"x_max":1138,"o":"m 482 1508 l 657 1259 l 578 1199 l 355 1407 l 482 1508 m 582 1102 q 974 938 810 1102 q 1138 546 1138 774 q 974 154 1138 317 q 582 -8 812 -8 q 190 154 352 -8 q 27 546 27 317 q 190 938 27 775 q 582 1102 353 1102 m 582 880 q 347 783 443 880 q 249 547 249 682 q 347 312 249 410 q 582 215 444 215 q 817 312 718 215 q 915 547 915 410 q 817 783 915 684 q 582 880 718 880 z "},"Ó":{"ha":1165,"x_min":27,"x_max":1138,"o":"m 754 1407 l 530 1199 l 452 1259 l 627 1508 l 754 1407 m 582 1102 q 975 938 810 1102 q 1138 546 1138 774 q 975 154 1138 317 q 582 -8 811 -8 q 190 154 352 -8 q 27 546 27 317 q 190 938 27 774 q 582 1102 353 1102 m 582 880 q 347 783 444 880 q 249 547 249 682 q 347 312 249 410 q 582 215 444 215 q 817 312 718 215 q 915 547 915 410 q 817 783 915 684 q 582 880 718 880 z "},"Ô":{"ha":1165,"x_min":27,"x_max":1138,"o":"m 579 1468 l 759 1187 l 648 1187 l 579 1294 l 511 1187 l 401 1187 l 579 1468 m 582 1102 q 974 938 810 1102 q 1138 546 1138 774 q 974 154 1138 317 q 582 -8 812 -8 q 190 154 352 -8 q 27 546 27 317 q 190 938 27 774 q 582 1102 353 1102 m 582 880 q 347 783 444 880 q 249 547 249 682 q 347 312 249 410 q 582 215 444 215 q 817 312 718 215 q 915 547 915 410 q 817 783 915 684 q 582 880 718 880 z "},"Õ":{"ha":1164,"x_min":27,"x_max":1137,"o":"m 838 1225 q 745 1177 793 1170 q 587 1221 695 1183 q 434 1249 473 1262 q 340 1179 395 1235 l 336 1300 q 431 1367 385 1352 q 604 1329 477 1381 q 758 1295 720 1279 q 839 1357 795 1310 l 838 1226 l 838 1225 m 582 1101 q 974 938 811 1101 q 1137 545 1137 774 q 974 154 1137 315 q 582 -8 812 -8 q 190 154 352 -8 q 27 545 27 315 q 190 938 27 774 q 582 1101 352 1101 m 582 880 q 347 782 444 880 q 249 547 249 684 q 347 312 249 408 q 582 214 443 214 q 817 312 719 214 q 915 547 915 408 q 817 782 915 684 q 582 880 718 880 z "},"Ö":{"ha":1164,"x_min":27,"x_max":1137,"o":"m 345 1288 q 370 1345 345 1321 q 427 1370 393 1370 q 484 1345 460 1370 q 509 1288 509 1321 q 484 1230 509 1255 q 427 1206 460 1206 q 369 1230 393 1206 q 345 1288 345 1254 m 651 1288 q 675 1345 651 1321 q 732 1370 699 1370 q 790 1345 766 1370 q 814 1288 814 1321 q 790 1230 814 1255 q 732 1206 766 1206 q 675 1230 699 1206 q 651 1288 651 1254 m 581 1101 q 974 938 810 1101 q 1137 545 1137 774 q 974 154 1137 315 q 581 -8 810 -8 q 190 154 351 -8 q 27 545 27 315 q 190 938 27 774 q 581 1101 351 1101 m 581 880 q 346 782 444 880 q 249 547 249 684 q 346 312 249 409 q 581 214 444 214 q 816 312 718 214 q 915 547 915 408 q 816 782 915 684 q 581 880 718 880 z "},"×":{"ha":1389,"x_min":0,"x_max":0,"o":""},"Ø":{"ha":1164,"x_min":27,"x_max":1137,"o":"m 911 1233 l 844 1036 q 974 937 915 996 q 1137 545 1137 774 q 974 153 1137 315 q 582 -9 812 -9 q 488 -1 535 -9 l 441 -139 l 269 -139 l 334 47 q 190 153 255 87 q 27 545 27 315 q 190 937 27 773 q 582 1101 352 1101 q 691 1090 638 1101 l 740 1233 l 911 1233 m 618 878 q 582 880 600 880 q 347 781 444 880 q 249 547 249 684 q 347 311 249 408 q 407 262 374 283 l 618 878 m 562 214 q 582 214 569 214 q 817 311 719 214 q 915 547 915 408 q 817 781 915 684 q 770 821 791 807 l 562 214 z "},"Ù":{"ha":1006,"x_min":61,"x_max":945,"o":"m 442 1507 l 617 1259 l 538 1198 l 315 1407 l 442 1507 m 503 214 q 658 279 592 214 q 724 434 724 345 l 724 1096 l 945 1096 l 945 433 q 815 121 945 249 q 503 -8 687 -8 q 191 121 319 -8 q 61 433 61 249 l 61 1096 l 283 1096 l 283 434 q 348 279 283 344 q 503 214 412 214 z "},"Ú":{"ha":1006,"x_min":61,"x_max":945,"o":"m 686 1407 l 463 1198 l 383 1259 l 559 1507 l 686 1407 m 503 214 q 658 279 592 214 q 724 434 724 345 l 724 1096 l 945 1096 l 945 433 q 815 121 945 249 q 503 -8 687 -8 q 191 121 319 -8 q 61 433 61 249 l 61 1096 l 283 1096 l 283 434 q 348 279 283 344 q 503 214 412 214 z "},"Û":{"ha":1006,"x_min":61,"x_max":945,"o":"m 500 1468 l 681 1186 l 570 1186 l 500 1293 l 433 1186 l 322 1186 l 500 1468 m 503 214 q 658 279 592 214 q 724 434 724 345 l 724 1096 l 945 1096 l 945 433 q 815 121 945 249 q 503 -8 687 -8 q 191 121 319 -8 q 61 433 61 249 l 61 1096 l 283 1096 l 283 434 q 348 279 283 345 q 503 214 412 214 z "},"Ü":{"ha":1006,"x_min":61,"x_max":945,"o":"m 503 214 q 659 279 593 214 q 724 434 724 345 l 724 1095 l 945 1095 l 945 433 q 816 121 945 250 q 504 -8 686 -8 q 191 121 320 -8 q 61 433 61 250 l 61 1095 l 282 1095 l 282 434 q 348 279 282 345 q 503 214 413 214 m 576 1287 q 600 1345 576 1320 q 657 1369 624 1369 q 715 1345 690 1369 q 739 1287 739 1320 q 715 1230 739 1253 q 657 1206 691 1206 q 600 1230 623 1206 q 576 1287 576 1253 m 271 1287 q 296 1345 271 1320 q 353 1369 320 1369 q 410 1345 386 1369 q 435 1287 435 1320 q 410 1230 435 1254 q 353 1206 387 1206 q 296 1230 319 1206 q 271 1287 271 1253 z "},"Ý":{"ha":932,"x_min":27,"x_max":905,"o":"m 680 1409 l 456 1201 l 376 1261 l 552 1510 l 680 1409 m 277 1099 l 466 750 l 655 1099 l 905 1099 l 576 492 l 576 0 l 356 0 l 356 492 l 27 1099 l 277 1099 z "},"Þ":{"ha":834,"x_min":61,"x_max":807,"o":"m 280 1093 l 280 905 l 448 905 q 702 800 597 905 q 807 547 807 695 q 702 293 807 399 q 448 188 597 188 l 280 188 l 280 0 l 61 0 l 61 1093 l 280 1093 m 605 547 q 559 658 605 611 q 448 704 512 704 l 280 704 l 280 390 l 448 390 q 558 436 512 390 q 605 547 605 482 z "},"ß":{"ha":1490,"x_min":27,"x_max":1463,"o":"m 1112 213 q 1198 246 1159 213 q 1239 324 1239 280 q 1163 422 1239 388 q 1095 446 1138 433 l 1077 450 l 1061 455 q 1029 464 1042 460 q 854 577 922 500 q 779 768 779 662 q 877 1004 779 906 q 1113 1101 975 1101 q 1332 1018 1238 1101 q 1442 814 1426 937 l 1224 768 q 1192 846 1224 813 q 1114 878 1159 878 q 1036 846 1068 878 q 1002 767 1002 812 q 1074 665 1002 703 q 1140 639 1101 651 q 1173 629 1153 635 l 1188 625 l 1203 620 q 1385 513 1314 588 q 1463 323 1463 431 q 1357 87 1463 186 q 1114 -10 1253 -10 q 886 72 986 -10 q 766 277 785 155 l 985 323 q 1025 245 985 279 q 1113 212 1065 212 l 1112 213 m 372 215 q 459 248 420 215 q 500 326 500 282 q 424 424 500 390 q 355 448 399 435 l 338 452 l 321 457 q 290 466 302 462 q 115 579 183 503 q 39 770 39 664 q 138 1006 39 908 q 374 1103 235 1103 q 593 1020 499 1103 q 703 816 686 939 l 485 770 q 452 848 485 815 q 375 880 420 880 q 296 848 329 880 q 263 769 263 814 q 335 667 263 705 q 401 641 361 653 q 433 631 414 637 l 449 627 l 464 622 q 646 515 575 590 q 724 325 724 433 q 618 90 724 189 q 374 -8 514 -8 q 146 74 247 -8 q 27 279 46 157 l 245 325 q 286 247 245 281 q 374 214 326 214 l 372 215 z "},"à":{"ha":1052,"x_min":27,"x_max":1025,"o":"m 626 1259 l 547 1199 l 323 1407 l 451 1508 l 626 1259 m 526 1116 l 1025 0 l 787 0 l 713 166 l 338 166 l 264 0 l 27 0 l 526 1116 m 626 360 l 526 591 l 425 360 l 626 360 z "},"á":{"ha":1052,"x_min":27,"x_max":1025,"o":"m 728 1407 l 505 1199 l 426 1259 l 601 1508 l 728 1407 m 526 1116 l 1025 0 l 787 0 l 713 166 l 338 166 l 264 0 l 27 0 l 526 1116 m 626 360 l 526 591 l 425 360 l 626 360 z "},"â":{"ha":1052,"x_min":27,"x_max":1025,"o":"m 524 1468 l 704 1186 l 593 1186 l 524 1293 l 456 1186 l 346 1186 l 524 1468 m 526 1116 l 1025 0 l 787 0 l 713 166 l 338 166 l 264 0 l 27 0 l 526 1116 m 626 360 l 526 591 l 425 360 l 626 360 z "},"ã":{"ha":1052,"x_min":27,"x_max":1025,"o":"m 792 1191 q 699 1142 747 1135 q 542 1187 650 1148 q 389 1214 428 1227 q 294 1144 349 1200 l 291 1265 q 386 1333 339 1318 q 558 1294 432 1347 q 712 1260 674 1244 q 793 1322 750 1276 l 791 1192 l 792 1191 m 526 1116 l 1025 0 l 787 0 l 713 166 l 338 166 l 264 0 l 27 0 l 526 1116 m 626 360 l 526 591 l 425 360 l 626 360 z "},"ä":{"ha":1052,"x_min":27,"x_max":1025,"o":"m 601 1267 q 625 1325 601 1301 q 682 1350 649 1350 q 740 1325 715 1350 q 764 1267 764 1301 q 740 1210 764 1234 q 682 1186 716 1186 q 625 1210 648 1186 q 601 1267 601 1234 m 526 1116 l 1025 0 l 787 0 l 713 166 l 338 166 l 264 0 l 27 0 l 526 1116 m 626 360 l 526 591 l 425 360 l 626 360 m 295 1267 q 319 1325 295 1301 q 377 1350 344 1350 q 434 1325 410 1350 q 458 1267 458 1301 q 434 1210 458 1234 q 377 1186 410 1186 q 319 1210 343 1186 q 295 1267 295 1234 z "},"å":{"ha":1047,"x_min":0,"x_max":998,"o":"m 372 1280 q 410 1371 372 1333 q 500 1409 448 1409 q 591 1371 553 1409 q 629 1280 629 1333 q 591 1190 629 1228 q 500 1152 553 1152 q 410 1190 448 1152 q 372 1280 372 1227 m 500 1333 q 447 1280 447 1333 q 500 1227 447 1227 q 554 1280 554 1227 q 500 1333 554 1333 m 498 1116 l 998 0 l 760 0 l 686 166 l 311 166 l 237 0 l 0 0 l 498 1116 m 599 360 l 499 591 l 398 360 l 599 360 z "},"æ":{"ha":1385,"x_min":27,"x_max":1358,"o":"m 338 168 q 302 85 325 136 l 283 44 l 264 3 l 27 3 l 525 1098 l 1358 1098 l 1358 879 l 919 879 l 919 659 l 1248 659 l 1248 439 l 919 439 l 919 219 l 1358 219 l 1358 0 l 699 0 l 699 163 l 696 168 l 338 168 m 699 886 l 669 886 l 429 363 l 699 367 l 699 886 z "},"ç":{"ha":1002,"x_min":27,"x_max":975,"o":"m 496 -2 q 190 154 320 22 q 27 545 27 315 q 190 939 27 774 q 581 1102 352 1102 l 581 1099 q 974 937 809 1099 l 817 780 q 582 878 719 878 q 347 780 444 878 q 250 545 250 681 q 347 309 250 408 q 582 212 444 212 q 818 310 719 212 l 975 154 q 797 35 899 78 q 665 -2 734 7 q 628 -191 665 -101 q 538 -319 593 -275 l 483 -365 l 349 -227 l 370 -219 q 445 -149 390 -212 q 496 -2 489 -98 z "},"è":{"ha":754,"x_min":68,"x_max":727,"o":"m 353 1510 l 528 1261 l 449 1201 l 225 1409 l 353 1510 m 727 1099 l 727 879 l 288 879 l 288 659 l 617 659 l 617 439 l 288 439 l 288 220 l 727 220 l 727 0 l 68 0 l 68 1099 l 727 1099 z "},"é":{"ha":754,"x_min":68,"x_max":727,"o":"m 727 1099 l 727 879 l 288 879 l 288 659 l 617 659 l 617 439 l 288 439 l 288 220 l 727 220 l 727 0 l 68 0 l 68 1099 l 727 1099 m 597 1409 l 374 1201 l 295 1261 l 470 1510 l 597 1409 z "},"ê":{"ha":754,"x_min":68,"x_max":727,"o":"m 727 1099 l 727 879 l 288 879 l 288 659 l 617 659 l 617 439 l 288 439 l 288 220 l 727 220 l 727 0 l 68 0 l 68 1099 l 727 1099 m 399 1470 l 579 1189 l 468 1189 l 399 1296 l 331 1189 l 220 1189 l 399 1470 z "},"ë":{"ha":754,"x_min":68,"x_max":727,"o":"m 161 1290 q 185 1348 161 1323 q 243 1372 210 1372 q 300 1348 275 1372 q 324 1290 324 1323 q 300 1232 324 1257 q 243 1208 276 1208 q 185 1232 209 1208 q 161 1290 161 1256 m 465 1290 q 490 1348 465 1323 q 547 1372 513 1372 q 604 1348 580 1372 q 629 1290 629 1323 q 604 1232 629 1257 q 547 1208 581 1208 q 489 1232 513 1208 q 465 1290 465 1256 m 727 1098 l 727 879 l 288 879 l 288 659 l 617 659 l 617 439 l 288 439 l 288 219 l 727 219 l 727 0 l 68 0 l 68 1098 l 727 1098 z "},"ì":{"ha":389,"x_min":0,"x_max":321,"o":"m 127 1510 l 302 1261 l 224 1201 l 0 1409 l 127 1510 m 102 1099 l 321 1099 l 321 0 l 102 0 l 102 1099 z "},"í":{"ha":399,"x_min":68,"x_max":399,"o":"m 68 1099 l 288 1099 l 288 0 l 68 0 l 68 1099 m 399 1409 l 176 1201 l 97 1261 l 272 1510 l 399 1409 z "},"î":{"ha":386,"x_min":14,"x_max":372,"o":"m 192 1470 l 372 1189 l 261 1189 l 192 1296 l 124 1189 l 14 1189 l 192 1470 m 83 1099 l 303 1099 l 303 0 l 83 0 l 83 1099 z "},"ï":{"ha":468,"x_min":0,"x_max":469,"o":"m 0 1290 q 24 1348 0 1323 q 81 1372 48 1372 q 139 1348 115 1372 q 163 1290 163 1323 q 139 1232 163 1256 q 81 1208 115 1208 q 24 1232 47 1208 q 0 1290 0 1256 m 306 1290 q 330 1348 306 1323 q 387 1372 354 1372 l 387 1372 q 444 1348 420 1372 q 469 1290 469 1323 q 444 1232 469 1257 q 387 1208 420 1208 q 330 1232 353 1208 q 306 1290 306 1256 m 119 1098 l 339 1098 l 339 0 l 119 0 l 119 1098 z "},"ð":{"ha":968,"x_min":27,"x_max":941,"o":"m 394 220 q 631 310 543 220 q 721 549 721 400 q 632 789 721 700 q 392 878 544 878 l 342 878 l 342 614 l 537 613 l 537 469 l 342 470 l 342 220 l 394 220 m 393 1096 q 795 935 633 1096 q 941 547 941 787 q 795 161 941 307 q 393 0 633 0 l 123 0 l 123 470 l 27 470 l 27 614 l 123 614 l 123 1096 l 393 1096 z "},"ñ":{"ha":1001,"x_min":61,"x_max":940,"o":"m 722 1225 q 628 1176 677 1169 q 471 1221 579 1182 q 319 1248 357 1261 q 224 1178 279 1234 l 220 1299 q 315 1367 269 1352 q 488 1328 361 1381 q 642 1294 604 1278 q 722 1356 680 1310 l 721 1225 l 722 1225 m 720 488 l 720 1095 l 940 1095 l 940 -22 l 281 605 l 281 -2 l 61 -2 l 61 1116 l 720 488 z "},"ò":{"ha":1165,"x_min":27,"x_max":1138,"o":"m 482 1508 l 657 1259 l 578 1199 l 355 1407 l 482 1508 m 582 1102 q 974 938 810 1102 q 1138 546 1138 774 q 974 154 1138 317 q 582 -8 812 -8 q 190 154 352 -8 q 27 546 27 317 q 190 938 27 775 q 582 1102 353 1102 m 582 880 q 347 783 443 880 q 249 547 249 682 q 347 312 249 410 q 582 215 444 215 q 817 312 718 215 q 915 547 915 410 q 817 783 915 684 q 582 880 718 880 z "},"ó":{"ha":1165,"x_min":27,"x_max":1138,"o":"m 754 1407 l 530 1199 l 452 1259 l 627 1508 l 754 1407 m 582 1102 q 975 938 810 1102 q 1138 546 1138 774 q 975 154 1138 317 q 582 -8 811 -8 q 190 154 352 -8 q 27 546 27 317 q 190 938 27 774 q 582 1102 353 1102 m 582 880 q 347 783 444 880 q 249 547 249 682 q 347 312 249 410 q 582 215 444 215 q 817 312 718 215 q 915 547 915 410 q 817 783 915 684 q 582 880 718 880 z "},"ô":{"ha":1165,"x_min":27,"x_max":1138,"o":"m 579 1468 l 759 1187 l 648 1187 l 579 1294 l 511 1187 l 401 1187 l 579 1468 m 582 1102 q 974 938 810 1102 q 1138 546 1138 774 q 974 154 1138 317 q 582 -8 812 -8 q 190 154 352 -8 q 27 546 27 317 q 190 938 27 774 q 582 1102 353 1102 m 582 880 q 347 783 444 880 q 249 547 249 682 q 347 312 249 410 q 582 215 444 215 q 817 312 718 215 q 915 547 915 410 q 817 783 915 684 q 582 880 718 880 z "},"õ":{"ha":1164,"x_min":27,"x_max":1137,"o":"m 838 1225 q 745 1177 793 1170 q 587 1221 695 1183 q 434 1249 473 1262 q 340 1179 395 1235 l 336 1300 q 431 1367 385 1352 q 604 1329 477 1381 q 758 1295 720 1279 q 839 1357 795 1310 l 838 1226 l 838 1225 m 582 1101 q 974 938 811 1101 q 1137 545 1137 774 q 974 154 1137 315 q 582 -8 812 -8 q 190 154 352 -8 q 27 545 27 315 q 190 938 27 774 q 582 1101 352 1101 m 582 880 q 347 782 444 880 q 249 547 249 684 q 347 312 249 408 q 582 214 443 214 q 817 312 719 214 q 915 547 915 408 q 817 782 915 684 q 582 880 718 880 z "},"ö":{"ha":1164,"x_min":27,"x_max":1137,"o":"m 345 1288 q 370 1345 345 1321 q 427 1370 393 1370 q 484 1345 460 1370 q 509 1288 509 1321 q 484 1230 509 1255 q 427 1206 460 1206 q 369 1230 393 1206 q 345 1288 345 1254 m 651 1288 q 675 1345 651 1321 q 732 1370 699 1370 q 790 1345 766 1370 q 814 1288 814 1321 q 790 1230 814 1255 q 732 1206 766 1206 q 675 1230 699 1206 q 651 1288 651 1254 m 581 1101 q 974 938 810 1101 q 1137 545 1137 774 q 974 154 1137 315 q 581 -8 810 -8 q 190 154 351 -8 q 27 545 27 315 q 190 938 27 774 q 581 1101 351 1101 m 581 880 q 346 782 444 880 q 249 547 249 684 q 346 312 249 409 q 581 214 444 214 q 816 312 718 214 q 915 547 915 408 q 816 782 915 684 q 581 880 718 880 z "},"÷":{"ha":1351,"x_min":47,"x_max":1303,"o":"m 325 309 l 370 681 l 257 547 l 177 681 l 160 542 l 92 542 l 134 884 l 271 660 l 464 884 q 374 153 413 468 l 195 345 l 173 159 l 105 159 l 147 503 l 325 309 m 633 652 l 612 722 l 573 652 l 633 652 m 538 591 l 509 542 l 437 542 l 632 884 l 744 542 q 779 427 758 496 l 815 312 l 917 496 l 989 496 l 795 153 l 686 496 l 668 547 l 653 593 l 538 593 l 538 591 m 768 541 q 797 760 781 633 l 811 877 l 920 877 q 1004 843 974 877 q 1025 755 1033 809 q 998 695 1021 722 q 943 658 976 669 l 1004 541 l 922 541 l 852 673 l 836 541 l 768 541 m 907 715 q 951 745 935 715 q 947 797 966 774 q 907 810 935 810 l 870 810 q 859 715 865 764 l 907 715 m 1196 779 q 1187 804 1196 793 q 1165 813 1179 813 q 1131 789 1141 813 q 1139 751 1119 766 q 1177 733 1155 739 q 1227 702 1210 721 q 1247 640 1251 677 q 1208 570 1242 600 q 1133 539 1175 539 q 1064 568 1090 539 q 1042 640 1037 598 l 1111 640 q 1118 616 1108 626 q 1141 606 1126 606 q 1166 616 1155 606 q 1179 640 1177 627 q 1168 665 1181 657 q 1156 671 1164 668 l 1149 674 l 1143 677 l 1143 680 q 1083 711 1103 693 q 1059 779 1055 738 q 1097 848 1064 819 q 1174 879 1131 879 q 1241 850 1215 879 q 1263 779 1268 821 l 1196 779 m 668 498 l 660 431 l 526 431 l 517 362 l 618 362 l 610 295 l 509 295 l 500 227 l 635 227 l 627 160 l 425 160 l 467 498 l 668 498 m 1303 1042 l 1303 52 l 47 52 l 47 1042 l 1303 1042 m 70 1019 l 70 73 l 1282 73 l 1282 1019 l 70 1019 z "},"ø":{"ha":1164,"x_min":27,"x_max":1137,"o":"m 911 1233 l 844 1036 q 974 937 915 996 q 1137 545 1137 774 q 974 153 1137 315 q 582 -9 812 -9 q 488 -1 535 -9 l 441 -139 l 269 -139 l 334 47 q 190 153 255 87 q 27 545 27 315 q 190 937 27 773 q 582 1101 352 1101 q 691 1090 638 1101 l 740 1233 l 911 1233 m 618 878 q 582 880 600 880 q 347 781 444 880 q 249 547 249 684 q 347 311 249 408 q 407 262 374 283 l 618 878 m 562 214 q 582 214 569 214 q 817 311 719 214 q 915 547 915 408 q 817 781 915 684 q 770 821 791 807 l 562 214 z "},"ù":{"ha":1006,"x_min":61,"x_max":945,"o":"m 442 1507 l 617 1259 l 538 1198 l 315 1407 l 442 1507 m 503 214 q 658 279 592 214 q 724 434 724 345 l 724 1096 l 945 1096 l 945 433 q 815 121 945 249 q 503 -8 687 -8 q 191 121 319 -8 q 61 433 61 249 l 61 1096 l 283 1096 l 283 434 q 348 279 283 344 q 503 214 412 214 z "},"ú":{"ha":1006,"x_min":61,"x_max":945,"o":"m 686 1407 l 463 1198 l 383 1259 l 559 1507 l 686 1407 m 503 214 q 658 279 592 214 q 724 434 724 345 l 724 1096 l 945 1096 l 945 433 q 815 121 945 249 q 503 -8 687 -8 q 191 121 319 -8 q 61 433 61 249 l 61 1096 l 283 1096 l 283 434 q 348 279 283 344 q 503 214 412 214 z "},"û":{"ha":1006,"x_min":61,"x_max":945,"o":"m 500 1468 l 681 1186 l 570 1186 l 500 1293 l 433 1186 l 322 1186 l 500 1468 m 503 214 q 658 279 592 214 q 724 434 724 345 l 724 1096 l 945 1096 l 945 433 q 815 121 945 249 q 503 -8 687 -8 q 191 121 319 -8 q 61 433 61 249 l 61 1096 l 283 1096 l 283 434 q 348 279 283 345 q 503 214 412 214 z "},"ü":{"ha":1006,"x_min":61,"x_max":945,"o":"m 503 214 q 659 279 593 214 q 724 434 724 345 l 724 1095 l 945 1095 l 945 433 q 816 121 945 250 q 504 -8 686 -8 q 191 121 320 -8 q 61 433 61 250 l 61 1095 l 282 1095 l 282 434 q 348 279 282 345 q 503 214 413 214 m 576 1287 q 600 1345 576 1320 q 657 1369 624 1369 q 715 1345 690 1369 q 739 1287 739 1320 q 715 1230 739 1253 q 657 1206 691 1206 q 600 1230 623 1206 q 576 1287 576 1253 m 271 1287 q 296 1345 271 1320 q 353 1369 320 1369 q 410 1345 386 1369 q 435 1287 435 1320 q 410 1230 435 1254 q 353 1206 387 1206 q 296 1230 319 1206 q 271 1287 271 1253 z "},"ý":{"ha":932,"x_min":27,"x_max":905,"o":"m 680 1409 l 456 1201 l 376 1261 l 552 1510 l 680 1409 m 277 1099 l 466 750 l 655 1099 l 905 1099 l 576 492 l 576 0 l 356 0 l 356 492 l 27 1099 l 277 1099 z "},"þ":{"ha":834,"x_min":61,"x_max":807,"o":"m 280 1093 l 280 905 l 448 905 q 702 800 597 905 q 807 547 807 695 q 702 293 807 399 q 448 188 597 188 l 280 188 l 280 0 l 61 0 l 61 1093 l 280 1093 m 605 547 q 559 658 605 611 q 448 704 512 704 l 280 704 l 280 390 l 448 390 q 558 436 512 390 q 605 547 605 482 z "},"ÿ":{"ha":932,"x_min":27,"x_max":905,"o":"m 277 1099 l 466 750 l 655 1099 l 905 1099 l 576 492 l 576 0 l 356 0 l 356 492 l 27 1099 l 277 1099 m 537 1287 q 561 1345 537 1320 q 618 1369 585 1369 q 675 1345 651 1369 q 700 1287 700 1320 q 675 1230 700 1254 q 618 1206 652 1206 q 561 1230 585 1206 q 537 1287 537 1253 m 233 1287 q 256 1345 233 1320 q 314 1369 281 1369 q 372 1345 347 1369 q 396 1287 396 1320 q 372 1230 396 1253 q 314 1206 348 1206 q 256 1230 280 1206 q 233 1287 233 1253 z "},"Ā":{"ha":1052,"x_min":27,"x_max":1025,"o":"m 723 1200 l 328 1200 l 328 1310 l 723 1310 l 723 1200 m 526 1116 l 1025 0 l 787 0 l 713 166 l 338 166 l 264 0 l 27 0 l 526 1116 m 626 360 l 526 591 l 425 360 l 626 360 z "},"ā":{"ha":1052,"x_min":27,"x_max":1025,"o":"m 723 1200 l 328 1200 l 328 1310 l 723 1310 l 723 1200 m 526 1116 l 1025 0 l 787 0 l 713 166 l 338 166 l 264 0 l 27 0 l 526 1116 m 626 360 l 526 591 l 425 360 l 626 360 z "},"Ă":{"ha":1052,"x_min":26,"x_max":1024,"o":"m 525 1310 q 592 1338 564 1310 q 621 1405 621 1367 l 722 1405 q 664 1266 722 1324 q 525 1208 606 1208 q 386 1266 444 1208 q 328 1405 328 1324 l 430 1405 q 458 1338 430 1366 q 525 1310 486 1310 m 525 1116 l 1024 0 l 786 0 l 712 166 l 338 166 l 264 0 l 26 0 l 525 1116 m 625 360 l 526 591 l 425 360 l 625 360 z "},"ă":{"ha":1052,"x_min":26,"x_max":1024,"o":"m 525 1310 q 592 1338 564 1310 q 621 1405 621 1367 l 722 1405 q 664 1266 722 1324 q 525 1208 606 1208 q 386 1266 444 1208 q 328 1405 328 1324 l 430 1405 q 458 1338 430 1366 q 525 1310 486 1310 m 525 1116 l 1024 0 l 786 0 l 712 166 l 338 166 l 264 0 l 26 0 l 525 1116 m 625 360 l 526 591 l 425 360 l 625 360 z "},"Ą":{"ha":1052,"x_min":27,"x_max":1025,"o":"m 623 360 l 526 588 l 429 360 l 623 360 m 1025 0 q 942 -54 1024 0 q 857 -176 859 -107 q 918 -208 854 -212 q 982 -203 981 -203 l 1006 -355 q 956 -359 1005 -355 q 746 -300 829 -371 q 703 -171 699 -260 q 793 0 707 -71 l 787 0 l 750 83 l 713 166 l 338 166 q 302 83 325 134 l 283 41 l 264 0 l 27 0 l 526 1116 l 1025 0 z "},"ą":{"ha":1052,"x_min":27,"x_max":1025,"o":"m 623 360 l 526 588 l 429 360 l 623 360 m 1025 0 q 942 -54 1024 0 q 857 -176 859 -107 q 918 -208 854 -212 q 982 -203 981 -203 l 1006 -355 q 956 -359 1005 -355 q 746 -300 829 -371 q 703 -171 699 -260 q 793 0 707 -71 l 787 0 l 750 83 l 713 166 l 338 166 q 302 83 325 134 l 283 41 l 264 0 l 27 0 l 526 1116 l 1025 0 z "},"Ć":{"ha":1002,"x_min":27,"x_max":975,"o":"m 975 154 q 581 -7 812 -7 q 190 154 352 -7 q 27 546 27 317 q 190 939 27 774 q 581 1102 353 1102 l 581 1099 q 974 937 806 1099 l 817 781 q 582 878 718 878 q 347 781 444 878 q 250 545 250 682 q 347 310 250 408 q 582 213 444 213 q 818 311 720 213 l 975 154 m 749 1409 l 526 1201 l 447 1261 l 622 1510 l 749 1409 z "},"ć":{"ha":1002,"x_min":27,"x_max":975,"o":"m 975 154 q 581 -7 812 -7 q 190 154 352 -7 q 27 546 27 317 q 190 939 27 774 q 581 1102 353 1102 l 581 1099 q 974 937 806 1099 l 817 781 q 582 878 718 878 q 347 781 444 878 q 250 545 250 682 q 347 310 250 408 q 582 213 444 213 q 818 311 720 213 l 975 154 m 749 1409 l 526 1201 l 447 1261 l 622 1510 l 749 1409 z "},"Č":{"ha":1002,"x_min":27,"x_max":975,"o":"m 975 154 q 581 -7 812 -7 q 190 154 352 -7 q 27 546 27 317 q 190 939 27 774 q 581 1102 353 1102 l 581 1099 q 974 937 806 1099 l 817 781 q 582 878 718 878 q 347 781 444 878 q 250 545 250 682 q 347 310 250 408 q 582 213 444 213 q 818 311 720 213 l 975 154 m 471 1463 l 540 1356 l 608 1463 l 720 1463 l 540 1181 l 361 1463 l 471 1463 z "},"č":{"ha":1002,"x_min":27,"x_max":975,"o":"m 975 154 q 581 -7 812 -7 q 190 154 352 -7 q 27 546 27 317 q 190 939 27 774 q 581 1102 353 1102 l 581 1099 q 974 937 806 1099 l 817 781 q 582 878 718 878 q 347 781 444 878 q 250 545 250 682 q 347 310 250 408 q 582 213 444 213 q 818 311 720 213 l 975 154 m 471 1463 l 540 1356 l 608 1463 l 720 1463 l 540 1181 l 361 1463 l 471 1463 z "},"Ď":{"ha":925,"x_min":61,"x_max":898,"o":"m 324 1463 l 392 1356 l 461 1463 l 572 1463 l 392 1181 l 214 1463 l 324 1463 m 352 1093 q 751 932 589 1093 q 898 546 898 785 q 751 160 898 306 q 352 0 590 0 l 61 0 l 61 1093 l 352 1093 l 352 1093 m 679 547 q 589 785 679 694 q 351 876 498 876 l 280 876 l 280 219 l 353 219 q 590 309 501 219 q 679 547 679 399 z "},"ď":{"ha":925,"x_min":61,"x_max":898,"o":"m 324 1463 l 392 1356 l 461 1463 l 572 1463 l 392 1181 l 214 1463 l 324 1463 m 352 1093 q 751 932 589 1093 q 898 546 898 785 q 751 160 898 306 q 352 0 590 0 l 61 0 l 61 1093 l 352 1093 l 352 1093 m 679 547 q 589 785 679 694 q 351 876 498 876 l 280 876 l 280 219 l 353 219 q 590 309 501 219 q 679 547 679 399 z "},"Đ":{"ha":968,"x_min":27,"x_max":941,"o":"m 394 220 q 631 310 543 220 q 721 549 721 400 q 632 789 721 700 q 392 878 544 878 l 342 878 l 342 614 l 537 613 l 537 469 l 342 470 l 342 220 l 394 220 m 393 1096 q 795 935 633 1096 q 941 547 941 787 q 795 161 941 307 q 393 0 633 0 l 123 0 l 123 470 l 27 470 l 27 614 l 123 614 l 123 1096 l 393 1096 z "},"đ":{"ha":968,"x_min":27,"x_max":941,"o":"m 394 220 q 631 310 543 220 q 721 549 721 400 q 632 789 721 700 q 392 878 544 878 l 342 878 l 342 614 l 537 613 l 537 469 l 342 470 l 342 220 l 394 220 m 393 1096 q 795 935 633 1096 q 941 547 941 787 q 795 161 941 307 q 393 0 633 0 l 123 0 l 123 470 l 27 470 l 27 614 l 123 614 l 123 1096 l 393 1096 z "},"Ē":{"ha":754,"x_min":68,"x_max":727,"o":"m 727 1098 l 727 879 l 288 879 l 288 659 l 617 659 l 617 439 l 288 439 l 288 219 l 727 219 l 727 0 l 68 0 l 68 1098 l 727 1098 m 595 1200 l 200 1200 l 200 1310 l 595 1310 l 595 1200 z "},"ē":{"ha":754,"x_min":68,"x_max":727,"o":"m 727 1098 l 727 879 l 288 879 l 288 659 l 617 659 l 617 439 l 288 439 l 288 219 l 727 219 l 727 0 l 68 0 l 68 1098 l 727 1098 m 595 1200 l 200 1200 l 200 1310 l 595 1310 l 595 1200 z "},"Ĕ":{"ha":754,"x_min":68,"x_max":727,"o":"m 727 1098 l 727 879 l 288 879 l 288 659 l 617 659 l 617 439 l 288 439 l 288 219 l 727 219 l 727 0 l 68 0 l 68 1098 l 727 1098 m 397 1310 q 464 1338 436 1310 q 492 1405 492 1367 l 595 1405 q 536 1266 595 1324 q 397 1208 478 1208 q 258 1265 316 1208 q 200 1405 200 1324 l 302 1405 q 330 1338 302 1366 q 397 1310 358 1310 z "},"ĕ":{"ha":754,"x_min":68,"x_max":727,"o":"m 727 1098 l 727 879 l 288 879 l 288 659 l 617 659 l 617 439 l 288 439 l 288 219 l 727 219 l 727 0 l 68 0 l 68 1098 l 727 1098 m 397 1310 q 464 1338 436 1310 q 492 1405 492 1367 l 595 1405 q 536 1266 595 1324 q 397 1208 478 1208 q 258 1265 316 1208 q 200 1405 200 1324 l 302 1405 q 330 1338 302 1366 q 397 1310 358 1310 z "},"Ė":{"ha":754,"x_min":68,"x_max":727,"o":"m 727 1098 l 727 879 l 288 879 l 288 659 l 617 659 l 617 439 l 288 439 l 288 219 l 727 219 l 727 0 l 68 0 l 68 1098 l 727 1098 m 302 1297 q 330 1364 302 1337 q 397 1393 358 1393 q 465 1364 436 1393 q 492 1297 492 1337 q 465 1230 492 1258 q 397 1202 437 1202 q 330 1230 357 1202 q 302 1297 302 1257 z "},"ė":{"ha":754,"x_min":68,"x_max":727,"o":"m 727 1098 l 727 879 l 288 879 l 288 659 l 617 659 l 617 439 l 288 439 l 288 219 l 727 219 l 727 0 l 68 0 l 68 1098 l 727 1098 m 302 1297 q 330 1364 302 1337 q 397 1393 358 1393 q 465 1364 436 1393 q 492 1297 492 1337 q 465 1230 492 1258 q 397 1202 437 1202 q 330 1230 357 1202 q 302 1297 302 1257 z "},"Ę":{"ha":754,"x_min":68,"x_max":727,"o":"m 727 1098 l 727 879 l 288 879 l 288 659 l 617 659 l 617 439 l 288 439 l 288 219 l 727 219 l 727 0 q 644 -54 726 0 q 559 -176 561 -107 q 621 -208 557 -212 l 684 -203 l 708 -355 q 659 -359 707 -355 q 448 -300 531 -371 q 405 -171 401 -260 q 495 0 408 -72 l 68 0 l 68 1098 l 727 1098 z "},"ę":{"ha":754,"x_min":68,"x_max":727,"o":"m 727 1098 l 727 879 l 288 879 l 288 659 l 617 659 l 617 439 l 288 439 l 288 219 l 727 219 l 727 0 q 644 -54 726 0 q 559 -176 561 -107 q 621 -208 557 -212 l 684 -203 l 708 -355 q 659 -359 707 -355 q 448 -300 531 -371 q 405 -171 401 -260 q 495 0 408 -72 l 68 0 l 68 1098 l 727 1098 z "},"Ě":{"ha":754,"x_min":68,"x_max":727,"o":"m 331 1463 l 399 1356 l 468 1463 l 579 1463 l 399 1181 l 220 1463 l 331 1463 m 727 1098 l 727 879 l 288 879 l 288 659 l 617 659 l 617 439 l 288 439 l 288 219 l 727 219 l 727 0 l 68 0 l 68 1098 l 727 1098 z "},"ě":{"ha":754,"x_min":68,"x_max":727,"o":"m 331 1463 l 399 1356 l 468 1463 l 579 1463 l 399 1181 l 220 1463 l 331 1463 m 727 1098 l 727 879 l 288 879 l 288 659 l 617 659 l 617 439 l 288 439 l 288 219 l 727 219 l 727 0 l 68 0 l 68 1098 l 727 1098 z "},"Ğ":{"ha":1162,"x_min":26,"x_max":1153,"o":"m 581 1101 q 974 939 808 1101 l 817 783 q 583 881 719 881 q 348 783 444 881 q 250 548 250 685 q 348 312 250 410 q 583 214 444 214 q 768 271 684 214 q 882 406 844 323 l 570 406 l 570 615 l 1132 615 q 972 155 1153 335 q 581 -7 809 -7 q 189 155 350 -7 q 26 548 26 317 q 189 940 26 776 q 581 1103 351 1103 l 581 1101 m 581 1310 q 647 1338 619 1310 q 675 1405 675 1367 l 778 1405 q 720 1266 778 1324 q 581 1208 661 1208 q 441 1265 499 1208 q 383 1405 383 1324 l 486 1405 q 513 1338 486 1366 q 581 1310 541 1310 z "},"ğ":{"ha":1162,"x_min":26,"x_max":1153,"o":"m 581 1101 q 974 939 808 1101 l 817 783 q 583 881 719 881 q 348 783 444 881 q 250 548 250 685 q 348 312 250 410 q 583 214 444 214 q 768 271 684 214 q 882 406 844 323 l 570 406 l 570 615 l 1132 615 q 972 155 1153 335 q 581 -7 809 -7 q 189 155 350 -7 q 26 548 26 317 q 189 940 26 776 q 581 1103 351 1103 l 581 1101 m 581 1310 q 647 1338 619 1310 q 675 1405 675 1367 l 778 1405 q 720 1266 778 1324 q 581 1208 661 1208 q 441 1265 499 1208 q 383 1405 383 1324 l 486 1405 q 513 1338 486 1366 q 581 1310 541 1310 z "},"Ģ":{"ha":1162,"x_min":26,"x_max":1153,"o":"m 581 1101 q 974 939 808 1101 l 817 783 q 583 881 719 881 q 348 783 444 881 q 250 548 250 685 q 348 312 250 410 q 583 214 444 214 q 768 271 684 214 q 882 406 844 323 l 570 406 l 570 615 l 1132 615 q 972 155 1153 335 q 581 -7 809 -7 q 189 155 350 -7 q 26 548 26 317 q 189 940 26 776 q 581 1103 351 1103 l 581 1101 m 467 -323 q 524 -197 523 -262 q 511 -84 526 -131 l 687 -83 q 670 -263 707 -165 q 558 -411 633 -361 l 467 -323 z "},"ģ":{"ha":1162,"x_min":26,"x_max":1153,"o":"m 581 1101 q 974 939 808 1101 l 817 783 q 583 881 719 881 q 348 783 444 881 q 250 548 250 685 q 348 312 250 410 q 583 214 444 214 q 768 271 684 214 q 882 406 844 323 l 570 406 l 570 615 l 1132 615 q 972 155 1153 335 q 581 -7 809 -7 q 189 155 350 -7 q 26 548 26 317 q 189 940 26 776 q 581 1103 351 1103 l 581 1101 m 467 -323 q 524 -197 523 -262 q 511 -84 526 -131 l 687 -83 q 670 -263 707 -165 q 558 -411 633 -361 l 467 -323 z "},"Ī":{"ha":408,"x_min":7,"x_max":401,"o":"m 94 1098 l 313 1098 l 313 0 l 94 0 l 94 1098 m 401 1200 l 7 1200 l 7 1310 l 401 1310 l 401 1200 z "},"ī":{"ha":408,"x_min":7,"x_max":401,"o":"m 94 1098 l 313 1098 l 313 0 l 94 0 l 94 1098 m 401 1200 l 7 1200 l 7 1310 l 401 1310 l 401 1200 z "},"Į":{"ha":387,"x_min":0,"x_max":0,"o":""},"į":{"ha":387,"x_min":0,"x_max":0,"o":""},"İ":{"ha":342,"x_min":61,"x_max":281,"o":"m 61 1098 l 281 1098 l 281 0 l 61 0 l 61 1098 m 76 1297 q 104 1364 76 1337 q 171 1393 132 1393 q 238 1364 210 1393 q 267 1297 267 1337 q 238 1230 267 1258 q 171 1202 210 1202 q 104 1230 132 1202 q 76 1297 76 1258 z "},"ı":{"ha":342,"x_min":61,"x_max":281,"o":"m 61 1098 l 281 1098 l 281 0 l 61 0 l 61 1098 m 76 1297 q 104 1364 76 1337 q 171 1393 132 1393 q 238 1364 210 1393 q 267 1297 267 1337 q 238 1230 267 1258 q 171 1202 210 1202 q 104 1230 132 1202 q 76 1297 76 1258 z "},"Ķ":{"ha":893,"x_min":61,"x_max":866,"o":"m 280 1093 l 280 610 l 560 1093 l 814 1093 l 490 538 l 866 0 l 599 0 l 280 458 l 280 0 l 61 0 l 61 1093 l 280 1093 m 313 -323 q 370 -197 368 -262 q 357 -84 372 -131 l 533 -83 q 517 -263 553 -165 q 404 -411 479 -361 l 313 -323 z "},"ķ":{"ha":893,"x_min":61,"x_max":866,"o":"m 280 1093 l 280 610 l 560 1093 l 814 1093 l 490 538 l 866 0 l 599 0 l 280 458 l 280 0 l 61 0 l 61 1093 l 280 1093 m 313 -323 q 370 -197 368 -262 q 357 -84 372 -131 l 533 -83 q 517 -263 553 -165 q 404 -411 479 -361 l 313 -323 z "},"Ĺ":{"ha":754,"x_min":68,"x_max":727,"o":"m 399 1409 l 176 1201 l 97 1261 l 272 1510 l 399 1409 m 288 1098 l 288 219 l 727 219 l 727 0 l 68 0 l 68 1098 l 288 1098 z "},"ĺ":{"ha":754,"x_min":68,"x_max":727,"o":"m 399 1409 l 176 1201 l 97 1261 l 272 1510 l 399 1409 m 288 1098 l 288 219 l 727 219 l 727 0 l 68 0 l 68 1098 l 288 1098 z "},"Ļ":{"ha":754,"x_min":68,"x_max":727,"o":"m 288 1098 l 288 219 l 727 219 l 727 0 l 68 0 l 68 1098 l 288 1098 m 283 -323 q 342 -197 340 -262 q 328 -84 343 -131 l 504 -83 q 488 -263 524 -165 q 375 -411 450 -361 l 283 -323 z "},"ļ":{"ha":754,"x_min":68,"x_max":727,"o":"m 288 1098 l 288 219 l 727 219 l 727 0 l 68 0 l 68 1098 l 288 1098 m 283 -323 q 342 -197 340 -262 q 328 -84 343 -131 l 504 -83 q 488 -263 524 -165 q 375 -411 450 -361 l 283 -323 z "},"Ľ":{"ha":754,"x_min":68,"x_max":727,"o":"m 288 1098 l 288 219 l 727 219 l 727 0 l 68 0 l 68 1098 l 288 1098 m 401 859 q 460 985 458 920 q 446 1097 461 1050 l 622 1098 q 606 918 642 1015 q 493 770 568 821 l 401 859 z "},"ľ":{"ha":754,"x_min":68,"x_max":727,"o":"m 288 1098 l 288 219 l 727 219 l 727 0 l 68 0 l 68 1098 l 288 1098 m 401 859 q 460 985 458 920 q 446 1097 461 1050 l 622 1098 q 606 918 642 1015 q 493 770 568 821 l 401 859 z "},"Ł":{"ha":852,"x_min":27,"x_max":825,"o":"m 385 1098 l 385 677 l 652 810 l 652 627 l 385 494 l 385 219 l 825 219 l 825 0 l 165 0 l 165 384 l 27 315 l 27 497 l 165 567 l 165 1098 l 385 1098 z "},"ł":{"ha":852,"x_min":27,"x_max":825,"o":"m 385 1098 l 385 677 l 652 810 l 652 627 l 385 494 l 385 219 l 825 219 l 825 0 l 165 0 l 165 384 l 27 315 l 27 497 l 165 567 l 165 1098 l 385 1098 z "},"Ń":{"ha":1015,"x_min":68,"x_max":947,"o":"m 726 488 l 726 1095 l 947 1095 l 947 -22 l 288 605 l 288 -2 l 68 -2 l 68 1116 l 726 488 m 691 1409 l 468 1201 l 389 1261 l 564 1510 l 691 1409 z "},"ń":{"ha":1015,"x_min":68,"x_max":947,"o":"m 726 488 l 726 1095 l 947 1095 l 947 -22 l 288 605 l 288 -2 l 68 -2 l 68 1116 l 726 488 m 691 1409 l 468 1201 l 389 1261 l 564 1510 l 691 1409 z "},"Ņ":{"ha":1015,"x_min":68,"x_max":947,"o":"m 726 489 l 726 1096 l 947 1096 l 947 -22 l 288 606 l 288 -1 l 68 -1 l 68 1116 l 726 489 m 393 -346 q 452 -219 450 -285 q 438 -106 453 -153 l 614 -106 q 597 -286 634 -188 q 485 -434 560 -383 l 393 -346 z "},"ņ":{"ha":1015,"x_min":68,"x_max":947,"o":"m 726 489 l 726 1096 l 947 1096 l 947 -22 l 288 606 l 288 -1 l 68 -1 l 68 1116 l 726 489 m 393 -346 q 452 -219 450 -285 q 438 -106 453 -153 l 614 -106 q 597 -286 634 -188 q 485 -434 560 -383 l 393 -346 z "},"Ň":{"ha":1015,"x_min":68,"x_max":947,"o":"m 726 488 l 726 1095 l 947 1095 l 947 -22 l 288 605 l 288 -2 l 68 -2 l 68 1116 l 726 488 m 438 1440 l 507 1333 l 575 1440 l 686 1440 l 507 1158 l 328 1440 l 438 1440 z "},"ň":{"ha":1015,"x_min":68,"x_max":947,"o":"m 726 488 l 726 1095 l 947 1095 l 947 -22 l 288 605 l 288 -2 l 68 -2 l 68 1116 l 726 488 m 438 1440 l 507 1333 l 575 1440 l 686 1440 l 507 1158 l 328 1440 l 438 1440 z "},"Ő":{"ha":1165,"x_min":27,"x_max":1138,"o":"m 647 1422 l 472 1173 l 382 1215 l 502 1494 l 647 1422 m 864 1422 l 688 1173 l 599 1215 l 718 1494 l 864 1422 m 582 1102 q 975 938 810 1102 q 1138 546 1138 774 q 975 154 1138 317 q 582 -8 811 -8 q 190 154 352 -8 q 27 546 27 317 q 190 938 27 774 q 582 1102 353 1102 m 582 880 q 347 783 444 880 q 249 547 249 682 q 347 312 249 410 q 582 215 444 215 q 817 312 718 215 q 915 547 915 410 q 817 783 915 684 q 582 880 718 880 z "},"ő":{"ha":1165,"x_min":27,"x_max":1138,"o":"m 647 1422 l 472 1173 l 382 1215 l 502 1494 l 647 1422 m 864 1422 l 688 1173 l 599 1215 l 718 1494 l 864 1422 m 582 1102 q 975 938 810 1102 q 1138 546 1138 774 q 975 154 1138 317 q 582 -8 811 -8 q 190 154 352 -8 q 27 546 27 317 q 190 938 27 774 q 582 1102 353 1102 m 582 880 q 347 783 444 880 q 249 547 249 682 q 347 312 249 410 q 582 215 444 215 q 817 312 718 215 q 915 547 915 410 q 817 783 915 684 q 582 880 718 880 z "},"Œ":{"ha":1594,"x_min":26,"x_max":1566,"o":"m 1566 1094 l 1566 875 l 1126 875 l 1126 654 l 1456 654 l 1456 435 l 1126 435 l 1126 215 l 1566 215 l 1566 -3 l 907 -3 l 907 97 q 581 -7 766 -7 q 189 154 351 -7 q 26 546 26 315 q 189 939 26 774 q 581 1102 353 1102 q 907 996 766 1102 l 907 1095 l 1566 1094 m 581 880 q 346 781 443 880 q 248 546 248 681 q 346 311 248 409 q 581 213 442 213 q 817 311 718 213 q 907 473 887 381 l 907 618 q 817 781 887 710 q 581 880 717 880 z "},"œ":{"ha":1594,"x_min":26,"x_max":1566,"o":"m 1566 1094 l 1566 875 l 1126 875 l 1126 654 l 1456 654 l 1456 435 l 1126 435 l 1126 215 l 1566 215 l 1566 -3 l 907 -3 l 907 97 q 581 -7 766 -7 q 189 154 351 -7 q 26 546 26 315 q 189 939 26 774 q 581 1102 353 1102 q 907 996 766 1102 l 907 1095 l 1566 1094 m 581 880 q 346 781 443 880 q 248 546 248 681 q 346 311 248 409 q 581 213 442 213 q 817 311 718 213 q 907 473 887 381 l 907 618 q 817 781 887 710 q 581 880 717 880 z "},"Ŕ":{"ha":898,"x_min":68,"x_max":871,"o":"m 425 1099 q 704 995 591 1099 q 817 735 817 890 l 817 701 q 747 494 817 592 q 616 393 697 425 l 871 0 l 602 0 l 288 480 l 288 0 l 68 0 l 68 1099 l 425 1099 m 617 1409 l 394 1201 l 315 1261 l 490 1510 l 617 1409 m 372 571 l 446 570 q 547 614 501 570 q 590 729 590 659 q 560 819 590 780 q 484 870 531 859 q 411 880 446 880 l 288 880 l 288 571 l 372 571 z "},"ŕ":{"ha":898,"x_min":68,"x_max":871,"o":"m 425 1099 q 704 995 591 1099 q 817 735 817 890 l 817 701 q 747 494 817 592 q 616 393 697 425 l 871 0 l 602 0 l 288 480 l 288 0 l 68 0 l 68 1099 l 425 1099 m 617 1409 l 394 1201 l 315 1261 l 490 1510 l 617 1409 m 372 571 l 446 570 q 547 614 501 570 q 590 729 590 659 q 560 819 590 780 q 484 870 531 859 q 411 880 446 880 l 288 880 l 288 571 l 372 571 z "},"Ř":{"ha":898,"x_min":68,"x_max":871,"o":"m 425 1099 q 704 995 591 1099 q 817 735 817 890 l 817 701 q 747 494 817 592 q 616 393 697 425 l 871 0 l 602 0 l 288 480 l 288 0 l 68 0 l 68 1099 l 425 1099 m 331 1463 l 399 1356 l 468 1463 l 579 1463 l 399 1181 l 220 1463 l 331 1463 m 372 571 l 446 570 q 547 614 501 570 q 590 729 590 659 q 560 819 590 780 q 484 870 531 859 q 411 880 446 880 l 288 880 l 288 571 l 372 571 z "},"ř":{"ha":898,"x_min":68,"x_max":871,"o":"m 425 1099 q 704 995 591 1099 q 817 735 817 890 l 817 701 q 747 494 817 592 q 616 393 697 425 l 871 0 l 602 0 l 288 480 l 288 0 l 68 0 l 68 1099 l 425 1099 m 331 1463 l 399 1356 l 468 1463 l 579 1463 l 399 1181 l 220 1463 l 331 1463 m 372 571 l 446 570 q 547 614 501 570 q 590 729 590 659 q 560 819 590 780 q 484 870 531 859 q 411 880 446 880 l 288 880 l 288 571 l 372 571 z "},"Ş":{"ha":722,"x_min":26,"x_max":694,"o":"m 362 880 q 283 847 317 880 q 250 769 250 814 q 298 679 250 709 q 360 642 346 648 q 387 635 368 640 l 395 632 q 406 629 401 631 q 435 621 420 625 q 648 477 564 585 q 694 324 694 417 q 597 89 694 186 q 484 14 546 38 q 585 -166 580 -62 q 541 -295 588 -255 q 330 -355 457 -367 l 281 -351 l 306 -199 l 369 -203 q 431 -172 432 -208 q 346 -49 428 -103 l 263 5 q 125 89 188 26 q 27 324 27 186 l 249 324 q 281 246 249 278 q 361 214 315 214 l 360 214 q 438 248 405 214 q 471 326 471 281 q 415 416 471 396 q 277 465 393 425 q 71 618 150 510 q 26 770 26 679 q 125 1004 26 907 q 361 1103 222 1103 q 595 1004 498 1103 q 694 770 694 907 l 473 770 q 439 847 473 814 q 362 880 406 880 z "},"ş":{"ha":722,"x_min":26,"x_max":694,"o":"m 362 880 q 283 847 317 880 q 250 769 250 814 q 298 679 250 709 q 360 642 346 648 q 387 635 368 640 l 395 632 q 406 629 401 631 q 435 621 420 625 q 648 477 564 585 q 694 324 694 417 q 597 89 694 186 q 484 14 546 38 q 585 -166 580 -62 q 541 -295 588 -255 q 330 -355 457 -367 l 281 -351 l 306 -199 l 369 -203 q 431 -172 432 -208 q 346 -49 428 -103 l 263 5 q 125 89 188 26 q 27 324 27 186 l 249 324 q 281 246 249 278 q 361 214 315 214 l 360 214 q 438 248 405 214 q 471 326 471 281 q 415 416 471 396 q 277 465 393 425 q 71 618 150 510 q 26 770 26 679 q 125 1004 26 907 q 361 1103 222 1103 q 595 1004 498 1103 q 694 770 694 907 l 473 770 q 439 847 473 814 q 362 880 406 880 z "},"Š":{"ha":722,"x_min":27,"x_max":724,"o":"m 372 215 q 459 248 420 215 q 500 326 500 282 q 424 424 500 390 q 355 448 399 435 l 338 452 l 321 457 q 290 466 302 462 q 115 579 183 503 q 39 770 39 664 q 138 1006 39 908 q 374 1103 235 1103 q 593 1020 499 1103 q 703 816 686 939 l 485 770 q 452 848 485 815 q 375 880 420 880 q 296 848 329 880 q 263 769 263 814 q 335 667 263 705 q 401 641 361 653 q 433 631 414 637 l 449 627 l 464 622 q 646 515 575 590 q 724 325 724 433 q 618 90 724 189 q 374 -8 514 -8 q 146 74 247 -8 q 27 279 46 157 l 245 325 q 286 247 245 281 q 374 214 326 214 l 372 215 m 292 1463 l 361 1356 l 429 1463 l 541 1463 l 361 1182 l 182 1463 l 292 1463 z "},"š":{"ha":722,"x_min":27,"x_max":724,"o":"m 372 215 q 459 248 420 215 q 500 326 500 282 q 424 424 500 390 q 355 448 399 435 l 338 452 l 321 457 q 290 466 302 462 q 115 579 183 503 q 39 770 39 664 q 138 1006 39 908 q 374 1103 235 1103 q 593 1020 499 1103 q 703 816 686 939 l 485 770 q 452 848 485 815 q 375 880 420 880 q 296 848 329 880 q 263 769 263 814 q 335 667 263 705 q 401 641 361 653 q 433 631 414 637 l 449 627 l 464 622 q 646 515 575 590 q 724 325 724 433 q 618 90 724 189 q 374 -8 514 -8 q 146 74 247 -8 q 27 279 46 157 l 245 325 q 286 247 245 281 q 374 214 326 214 l 372 215 m 292 1463 l 361 1356 l 429 1463 l 541 1463 l 361 1182 l 182 1463 l 292 1463 z "},"Ţ":{"ha":824,"x_min":27,"x_max":797,"o":"m 797 1098 l 797 879 l 522 879 l 522 9 q 623 -171 618 -64 q 580 -300 627 -260 q 370 -359 496 -371 l 321 -355 l 345 -203 l 408 -208 q 470 -176 471 -212 q 385 -54 467 -107 l 302 0 l 302 879 l 27 879 l 27 1098 l 797 1098 z "},"ţ":{"ha":824,"x_min":27,"x_max":797,"o":"m 797 1098 l 797 879 l 522 879 l 522 9 q 623 -171 618 -64 q 580 -300 627 -260 q 370 -359 496 -371 l 321 -355 l 345 -203 l 408 -208 q 470 -176 471 -212 q 385 -54 467 -107 l 302 0 l 302 879 l 27 879 l 27 1098 l 797 1098 z "},"Ť":{"ha":824,"x_min":27,"x_max":797,"o":"m 797 1098 l 797 879 l 522 879 l 522 0 l 302 0 l 302 879 l 27 879 l 27 1098 l 797 1098 m 343 1463 l 411 1356 l 480 1463 l 591 1463 l 411 1181 l 233 1463 l 343 1463 z "},"ť":{"ha":824,"x_min":27,"x_max":797,"o":"m 797 1098 l 797 879 l 522 879 l 522 0 l 302 0 l 302 879 l 27 879 l 27 1098 l 797 1098 m 343 1463 l 411 1356 l 480 1463 l 591 1463 l 411 1181 l 233 1463 l 343 1463 z "},"Ū":{"ha":1006,"x_min":61,"x_max":945,"o":"m 503 214 q 659 279 593 214 q 724 434 724 345 l 724 1095 l 945 1095 l 945 433 q 816 121 945 250 q 504 -8 686 -8 q 191 121 320 -8 q 61 433 61 250 l 61 1095 l 282 1095 l 282 434 q 348 279 282 345 q 503 214 413 214 m 701 1191 l 306 1191 l 306 1301 l 701 1301 l 701 1191 z "},"ū":{"ha":1006,"x_min":61,"x_max":945,"o":"m 503 214 q 659 279 593 214 q 724 434 724 345 l 724 1095 l 945 1095 l 945 433 q 816 121 945 250 q 504 -8 686 -8 q 191 121 320 -8 q 61 433 61 250 l 61 1095 l 282 1095 l 282 434 q 348 279 282 345 q 503 214 413 214 m 701 1191 l 306 1191 l 306 1301 l 701 1301 l 701 1191 z "},"Ů":{"ha":1006,"x_min":61,"x_max":945,"o":"m 503 214 q 659 279 593 214 q 724 434 724 345 l 724 1095 l 945 1095 l 945 433 q 816 121 945 250 q 504 -8 686 -8 q 191 121 320 -8 q 61 433 61 250 l 61 1095 l 282 1095 l 282 434 q 348 279 282 345 q 503 214 413 214 m 503 1324 q 450 1272 450 1324 q 503 1218 450 1218 q 557 1272 557 1218 q 503 1324 557 1324 m 375 1272 q 413 1362 375 1325 q 503 1400 450 1400 q 593 1362 555 1400 q 631 1272 631 1324 q 593 1182 631 1219 q 503 1144 556 1144 q 412 1181 450 1144 q 375 1272 375 1219 z "},"ů":{"ha":1006,"x_min":61,"x_max":945,"o":"m 503 214 q 659 279 593 214 q 724 434 724 345 l 724 1095 l 945 1095 l 945 433 q 816 121 945 250 q 504 -8 686 -8 q 191 121 320 -8 q 61 433 61 250 l 61 1095 l 282 1095 l 282 434 q 348 279 282 345 q 503 214 413 214 m 503 1324 q 450 1272 450 1324 q 503 1218 450 1218 q 557 1272 557 1218 q 503 1324 557 1324 m 375 1272 q 413 1362 375 1325 q 503 1400 450 1400 q 593 1362 555 1400 q 631 1272 631 1324 q 593 1182 631 1219 q 503 1144 556 1144 q 412 1181 450 1144 q 375 1272 375 1219 z "},"Ű":{"ha":1006,"x_min":61,"x_max":945,"o":"m 503 214 q 659 279 593 214 q 724 434 724 345 l 724 1095 l 945 1095 l 945 433 q 816 121 945 250 q 504 -8 686 -8 q 191 121 320 -8 q 61 433 61 250 l 61 1095 l 282 1095 l 282 434 q 348 279 282 345 q 503 214 413 214 m 564 1463 l 388 1213 l 298 1255 l 418 1535 l 564 1463 m 781 1463 l 605 1213 l 515 1255 l 635 1535 l 781 1463 z "},"ű":{"ha":1006,"x_min":61,"x_max":945,"o":"m 503 214 q 659 279 593 214 q 724 434 724 345 l 724 1095 l 945 1095 l 945 433 q 816 121 945 250 q 504 -8 686 -8 q 191 121 320 -8 q 61 433 61 250 l 61 1095 l 282 1095 l 282 434 q 348 279 282 345 q 503 214 413 214 m 564 1463 l 388 1213 l 298 1255 l 418 1535 l 564 1463 m 781 1463 l 605 1213 l 515 1255 l 635 1535 l 781 1463 z "},"Ų":{"ha":1006,"x_min":61,"x_max":945,"o":"m 503 212 q 659 277 593 212 q 724 432 724 343 l 724 1093 l 945 1093 l 945 431 q 816 119 945 248 q 736 54 777 79 q 707 37 723 45 q 621 -28 671 15 q 568 -122 570 -71 q 630 -153 566 -158 l 693 -149 l 718 -301 q 668 -305 717 -301 q 457 -245 541 -317 q 414 -116 410 -205 q 449 -7 416 -58 q 191 119 300 8 q 61 431 61 248 l 61 1093 l 282 1093 l 282 432 q 348 277 282 342 q 503 212 413 212 z "},"ų":{"ha":1006,"x_min":61,"x_max":945,"o":"m 503 212 q 659 277 593 212 q 724 432 724 343 l 724 1093 l 945 1093 l 945 431 q 816 119 945 248 q 736 54 777 79 q 707 37 723 45 q 621 -28 671 15 q 568 -122 570 -71 q 630 -153 566 -158 l 693 -149 l 718 -301 q 668 -305 717 -301 q 457 -245 541 -317 q 414 -116 410 -205 q 449 -7 416 -58 q 191 119 300 8 q 61 431 61 248 l 61 1093 l 282 1093 l 282 432 q 348 277 282 342 q 503 212 413 212 z "},"Ź":{"ha":823,"x_min":27,"x_max":796,"o":"m 796 1096 l 376 217 l 796 217 l 796 -1 l 27 -1 l 448 877 l 27 877 l 27 1096 l 796 1096 m 576 1409 l 353 1201 l 273 1261 l 449 1510 l 576 1409 z "},"ź":{"ha":823,"x_min":27,"x_max":796,"o":"m 796 1096 l 376 217 l 796 217 l 796 -1 l 27 -1 l 448 877 l 27 877 l 27 1096 l 796 1096 m 576 1409 l 353 1201 l 273 1261 l 449 1510 l 576 1409 z "},"Ż":{"ha":823,"x_min":27,"x_max":796,"o":"m 796 1096 l 376 217 l 796 217 l 796 -1 l 27 -1 l 448 877 l 27 877 l 27 1096 l 796 1096 m 316 1297 q 344 1364 316 1337 q 412 1393 372 1393 q 479 1364 451 1393 q 507 1297 507 1337 q 479 1230 507 1258 q 412 1202 451 1202 q 344 1230 372 1202 q 316 1297 316 1257 z "},"ż":{"ha":823,"x_min":27,"x_max":796,"o":"m 796 1096 l 376 217 l 796 217 l 796 -1 l 27 -1 l 448 877 l 27 877 l 27 1096 l 796 1096 m 316 1297 q 344 1364 316 1337 q 412 1393 372 1393 q 479 1364 451 1393 q 507 1297 507 1337 q 479 1230 507 1258 q 412 1202 451 1202 q 344 1230 372 1202 q 316 1297 316 1257 z "},"Ž":{"ha":823,"x_min":27,"x_max":796,"o":"m 342 1463 l 411 1356 l 479 1463 l 591 1463 l 411 1181 l 233 1463 l 342 1463 m 796 1096 l 376 217 l 796 217 l 796 -1 l 27 -1 l 448 877 l 27 877 l 27 1096 l 796 1096 z "},"ž":{"ha":823,"x_min":27,"x_max":796,"o":"m 342 1463 l 411 1356 l 479 1463 l 591 1463 l 411 1181 l 233 1463 l 342 1463 m 796 1096 l 376 217 l 796 217 l 796 -1 l 27 -1 l 448 877 l 27 877 l 27 1096 l 796 1096 z "},"Ə":{"ha":1163,"x_min":27,"x_max":1136,"o":"m 277 1008 q 582 1100 418 1100 l 583 1102 q 974 939 811 1102 q 1136 546 1136 774 q 974 154 1136 316 q 583 -8 812 -8 q 191 154 353 -8 q 27 546 27 315 q 38 656 27 606 l 895 656 q 815 781 869 726 q 581 880 718 880 q 396 823 477 880 l 277 1008 m 267 435 q 381 279 300 340 q 581 213 469 213 q 815 311 718 213 q 895 435 870 366 l 267 435 z "},"ǝ":{"ha":1163,"x_min":27,"x_max":1136,"o":"m 277 1008 q 582 1100 418 1100 l 583 1102 q 974 939 811 1102 q 1136 546 1136 774 q 974 154 1136 316 q 583 -8 812 -8 q 191 154 353 -8 q 27 546 27 315 q 38 656 27 606 l 895 656 q 815 781 869 726 q 581 880 718 880 q 396 823 477 880 l 277 1008 m 267 435 q 381 279 300 340 q 581 213 469 213 q 815 311 718 213 q 895 435 870 366 l 267 435 z "},"Ț":{"ha":824,"x_min":27,"x_max":797,"o":"m 797 1098 l 797 879 l 522 879 l 522 0 l 302 0 l 302 879 l 27 879 l 27 1098 l 797 1098 m 294 -323 q 352 -197 350 -262 q 338 -84 353 -131 l 514 -83 q 498 -263 534 -165 q 385 -411 460 -361 l 294 -323 z "},"ț":{"ha":824,"x_min":27,"x_max":797,"o":"m 797 1098 l 797 879 l 522 879 l 522 0 l 302 0 l 302 879 l 27 879 l 27 1098 l 797 1098 m 294 -323 q 352 -197 350 -262 q 338 -84 353 -131 l 514 -83 q 498 -263 534 -165 q 385 -411 460 -361 l 294 -323 z "},"Ё":{"ha":754,"x_min":68,"x_max":727,"o":"m 161 1290 q 185 1348 161 1323 q 243 1372 210 1372 q 300 1348 275 1372 q 324 1290 324 1323 q 300 1232 324 1257 q 243 1208 276 1208 q 185 1232 209 1208 q 161 1290 161 1256 m 465 1290 q 490 1348 465 1323 q 547 1372 513 1372 q 604 1348 580 1372 q 629 1290 629 1323 q 604 1232 629 1257 q 547 1208 581 1208 q 489 1232 513 1208 q 465 1290 465 1256 m 727 1098 l 727 879 l 288 879 l 288 659 l 617 659 l 617 439 l 288 439 l 288 219 l 727 219 l 727 0 l 68 0 l 68 1098 l 727 1098 z "},"А":{"ha":1052,"x_min":27,"x_max":1025,"o":"m 526 1116 l 1025 0 l 787 0 l 713 166 l 338 166 l 264 0 l 27 0 l 526 1116 m 626 360 l 526 591 l 425 360 l 626 360 z "},"Б":{"ha":863,"x_min":68,"x_max":836,"o":"m 288 765 l 452 765 q 723 653 610 765 q 836 383 836 543 q 723 112 836 224 q 452 0 611 0 l 68 0 l 68 1093 l 727 1093 l 727 875 l 288 875 l 288 765 m 288 218 l 452 218 q 568 267 519 218 q 616 383 616 316 q 568 499 616 450 q 452 548 519 548 l 288 547 l 288 218 z "},"В":{"ha":842,"x_min":68,"x_max":815,"o":"m 677 794 q 662 712 677 758 q 631 643 649 675 q 675 618 654 632 q 715 587 701 601 q 815 345 815 486 q 715 102 815 202 q 474 0 616 0 l 68 0 l 68 1093 l 373 1093 q 590 1002 500 1093 q 677 794 677 914 m 474 214 q 564 253 527 214 q 601 345 601 291 q 563 437 601 398 q 474 479 526 475 q 380 480 435 481 l 335 480 q 287 479 306 479 l 287 214 l 474 214 m 465 785 q 438 852 465 823 q 373 880 411 880 l 287 880 l 287 680 q 369 685 316 681 q 437 717 410 690 q 465 785 465 745 z "},"Г":{"ha":754,"x_min":68,"x_max":727,"o":"m 68 0 l 68 1093 l 727 1093 l 727 875 l 288 875 l 288 0 l 68 0 z "},"Д":{"ha":1059,"x_min":26,"x_max":1026,"o":"m 723 351 l 723 875 l 494 875 l 487 776 l 478 551 q 406 351 460 428 l 723 351 m 943 1093 l 943 351 l 1026 351 l 1026 -1 l 805 -1 l 805 131 l 248 131 l 248 -1 l 26 -1 l 26 351 l 146 351 q 259 561 255 473 l 267 781 l 281 1091 l 943 1093 z "},"Е":{"ha":754,"x_min":68,"x_max":727,"o":"m 727 1096 l 727 877 l 288 877 l 288 656 l 617 656 l 617 437 l 288 437 l 288 217 l 727 217 l 727 -1 l 68 -1 l 68 1096 l 727 1096 z "},"Ж":{"ha":1467,"x_min":51,"x_max":1440,"o":"m 635 613 l 635 1093 l 856 1093 l 856 613 l 1134 1093 l 1388 1093 l 1064 538 l 1440 0 l 1173 0 l 856 456 l 856 0 l 635 0 l 635 456 l 318 0 l 51 0 l 427 538 l 103 1093 l 357 1093 l 635 613 z "},"З":{"ha":789,"x_min":33,"x_max":755,"o":"m 389 224 q 490 262 448 224 q 533 359 533 302 q 465 500 533 438 q 267 568 396 562 l 313 659 q 439 716 399 675 q 478 805 478 756 l 476 804 q 450 865 476 840 q 388 892 424 892 q 331 871 355 892 q 302 822 307 851 l 83 869 q 189 1040 106 970 q 388 1114 275 1114 q 608 1023 515 1114 q 699 803 699 931 q 638 617 699 699 q 646 611 644 613 q 755 357 755 506 q 646 104 755 208 q 388 0 539 0 q 164 75 263 0 q 33 271 63 151 l 249 326 q 298 254 258 283 q 389 224 338 224 z "},"И":{"ha":1015,"x_min":68,"x_max":947,"o":"m 947 1116 l 947 -1 l 727 -1 l 727 606 l 68 -22 l 68 1096 l 288 1096 l 288 489 l 947 1116 z "},"Й":{"ha":1015,"x_min":68,"x_max":947,"o":"m 947 1116 l 947 -1 l 727 -1 l 727 606 l 68 -22 l 68 1096 l 288 1096 l 288 489 l 947 1116 m 526 1310 q 593 1338 565 1310 q 621 1405 621 1367 l 723 1405 q 665 1266 723 1324 q 526 1208 606 1208 q 387 1266 445 1208 q 329 1405 329 1324 l 431 1405 q 458 1338 431 1366 q 526 1310 486 1310 z "},"К":{"ha":900,"x_min":68,"x_max":873,"o":"m 287 1093 l 287 610 l 567 1093 l 821 1093 l 497 538 l 873 0 l 606 0 l 287 458 l 287 0 l 68 0 l 68 1093 l 287 1093 z "},"Л":{"ha":1042,"x_min":27,"x_max":1015,"o":"m 1015 4 l 780 4 l 519 587 l 260 4 l 27 4 l 520 1093 l 1015 4 z "},"М":{"ha":1206,"x_min":68,"x_max":1139,"o":"m 604 385 l 1139 1119 l 1139 0 l 919 0 l 919 453 l 604 18 l 288 453 l 288 0 l 68 0 l 68 1119 l 604 385 z "},"Н":{"ha":939,"x_min":68,"x_max":871,"o":"m 287 1093 l 287 656 l 652 656 l 652 1093 l 871 1093 l 871 0 l 652 0 l 652 438 l 287 438 l 287 0 l 68 0 l 68 1093 l 287 1093 z "},"О":{"ha":1163,"x_min":27,"x_max":1137,"o":"m 582 1102 q 974 939 810 1102 q 1137 546 1137 775 q 974 154 1137 316 q 582 -7 811 -7 q 190 154 352 -7 q 27 546 27 317 q 190 939 27 774 q 582 1102 353 1102 m 582 880 q 347 783 443 880 q 249 547 249 684 q 347 312 249 410 q 582 215 444 215 q 817 312 718 215 q 915 547 915 409 q 817 783 915 684 q 582 880 719 880 z "},"П":{"ha":929,"x_min":68,"x_max":868,"o":"m 288 875 l 288 0 l 68 0 l 68 1093 l 868 1093 l 868 0 l 648 0 l 648 875 l 288 875 z "},"Р":{"ha":863,"x_min":68,"x_max":836,"o":"m 68 1093 l 452 1093 q 723 981 611 1093 q 836 710 836 869 q 723 440 836 550 q 452 328 610 328 l 288 328 l 288 0 l 68 0 l 68 1093 m 616 710 q 568 826 616 777 q 452 876 519 876 l 288 876 l 288 546 l 452 545 q 568 594 519 545 q 616 710 616 643 z "},"С":{"ha":1002,"x_min":27,"x_max":975,"o":"m 975 154 q 581 -7 812 -7 q 190 154 352 -7 q 27 546 27 317 q 190 939 27 774 q 581 1102 353 1102 l 581 1099 q 974 937 806 1099 l 817 781 q 582 878 718 878 q 347 781 444 878 q 250 545 250 682 q 347 310 250 408 q 582 213 444 213 q 818 311 720 213 l 975 154 z "},"Т":{"ha":812,"x_min":27,"x_max":785,"o":"m 785 1093 l 785 876 l 517 876 l 517 0 l 296 0 l 296 876 l 27 876 l 27 1093 l 785 1093 z "},"У":{"ha":932,"x_min":27,"x_max":905,"o":"m 279 1093 l 466 768 l 653 1093 l 905 1093 l 279 0 l 27 1 l 339 547 l 27 1093 l 279 1093 z "},"Ф":{"ha":1387,"x_min":42,"x_max":1360,"o":"m 1091 748 q 975 798 1042 798 l 811 798 l 811 325 l 975 324 q 1091 373 1042 324 q 1140 570 1140 422 q 1091 748 1140 699 m 311 374 q 427 324 359 324 l 591 324 l 591 797 l 427 798 q 311 749 359 798 q 262 570 262 700 q 311 374 262 422 m 810 1015 l 975 1015 q 1246 903 1135 1015 q 1360 570 1360 791 q 1246 219 1360 329 q 975 107 1133 107 l 811 107 l 811 0 l 591 0 l 591 106 l 427 106 q 155 218 267 106 q 42 570 42 331 q 155 903 42 793 q 427 1015 269 1015 l 591 1015 l 591 1093 l 810 1093 l 810 1015 z "},"Х":{"ha":932,"x_min":27,"x_max":905,"o":"m 279 1093 l 466 768 l 653 1093 l 905 1093 l 592 547 l 905 0 l 653 0 l 466 326 l 279 0 l 27 1 l 339 547 l 27 1093 l 279 1093 z "},"Ц":{"ha":1019,"x_min":68,"x_max":983,"o":"m 288 219 l 648 219 l 648 1093 l 868 1093 l 868 219 l 983 219 l 983 -134 l 770 -134 l 770 -1 l 90 -1 l 90 0 l 68 0 l 68 1093 l 288 1093 l 288 219 z "},"Ч":{"ha":939,"x_min":68,"x_max":871,"o":"m 68 607 l 68 1093 l 287 1093 l 287 656 l 652 656 l 652 1093 l 871 1093 l 871 0 l 652 0 l 652 438 l 216 437 l 215 439 l 210 439 q 111 479 152 439 q 69 578 69 521 q 68 607 69 593 z "},"Ш":{"ha":1202,"x_min":62,"x_max":1159,"o":"m 62 1094 l 281 1094 l 281 216 l 501 216 l 503 1093 l 722 1093 l 720 216 l 941 216 l 941 1093 l 1159 1093 l 1159 -3 l 62 -3 l 62 1094 z "},"Щ":{"ha":1277,"x_min":62,"x_max":1255,"o":"m 362 -3 l 62 -3 l 62 1094 l 281 1094 l 281 216 l 501 216 l 503 1093 l 722 1093 l 720 216 l 941 216 l 941 1093 l 1159 1093 l 1159 216 l 1255 216 l 1255 -138 l 1042 -138 l 1042 -4 l 362 -4 l 362 -3 z "},"Ъ":{"ha":940,"x_min":20,"x_max":913,"o":"m 693 383 q 644 499 693 450 q 528 548 595 548 l 364 547 l 364 218 l 528 218 q 644 267 595 218 q 693 383 693 316 m 144 1093 l 144 1093 l 364 1093 l 364 765 l 528 765 q 800 653 686 765 q 913 383 913 543 q 800 112 913 224 q 528 0 688 0 l 144 0 l 144 877 l 20 877 l 20 1093 l 144 1093 z "},"Ы":{"ha":1168,"x_min":68,"x_max":1124,"o":"m 68 1093 l 288 1093 l 288 765 l 452 765 q 723 653 610 765 q 836 383 836 543 q 723 112 836 224 q 452 0 611 0 l 68 0 l 68 1093 m 616 383 q 568 499 616 450 q 452 548 519 548 l 288 547 l 288 218 l 452 218 q 568 267 519 218 q 616 383 616 316 m 905 0 l 1124 0 l 1124 1093 l 905 1093 l 905 0 z "},"Ь":{"ha":863,"x_min":68,"x_max":836,"o":"m 68 1093 l 288 1093 l 288 765 l 452 765 q 723 653 610 765 q 836 383 836 543 q 723 112 836 224 q 452 0 611 0 l 68 0 l 68 1093 m 616 383 q 568 499 616 450 q 452 548 519 548 l 288 547 l 288 218 l 452 218 q 568 267 519 218 q 616 383 616 316 z "},"Э":{"ha":1002,"x_min":27,"x_max":975,"o":"m 734 656 q 654 781 710 724 q 420 878 558 878 q 184 781 283 878 l 28 937 q 421 1099 196 1099 l 420 1102 q 812 939 648 1102 q 975 546 975 774 q 812 154 975 317 q 420 -7 650 -7 q 27 154 190 -7 l 184 311 q 420 213 281 213 q 654 310 557 213 q 735 437 711 367 l 432 437 l 432 656 l 734 656 z "},"Ю":{"ha":1506,"x_min":48,"x_max":1480,"o":"m 924 880 q 689 783 785 880 q 591 547 591 684 q 689 312 591 410 q 924 215 786 215 q 1159 312 1061 215 q 1257 547 1257 409 q 1159 783 1257 684 q 924 880 1061 880 m 381 662 q 532 939 412 818 q 924 1102 696 1102 q 1316 939 1153 1102 q 1480 546 1480 775 q 1316 154 1480 316 q 924 -7 1154 -7 q 532 154 694 -7 q 381 429 412 274 l 268 429 l 268 0 l 48 0 l 48 1093 l 268 1093 l 268 662 l 381 662 z "},"Я":{"ha":897,"x_min":68,"x_max":871,"o":"m 870 0 l 650 0 l 650 484 l 336 0 l 68 0 l 322 396 q 191 497 241 428 q 122 705 122 595 l 122 734 q 150 878 122 819 q 228 982 173 927 q 514 1093 340 1093 l 871 1093 l 870 0 m 566 573 l 566 574 l 651 574 l 651 876 l 528 876 q 392 832 437 876 q 349 727 349 787 q 391 618 349 664 q 493 573 433 573 l 566 573 z "},"а":{"ha":1052,"x_min":27,"x_max":1025,"o":"m 526 1116 l 1025 0 l 787 0 l 713 166 l 338 166 l 264 0 l 27 0 l 526 1116 m 626 360 l 526 591 l 425 360 l 626 360 z "},"б":{"ha":863,"x_min":68,"x_max":836,"o":"m 288 765 l 452 765 q 723 653 610 765 q 836 383 836 543 q 723 112 836 224 q 452 0 611 0 l 68 0 l 68 1093 l 727 1093 l 727 875 l 288 875 l 288 765 m 288 218 l 452 218 q 568 267 519 218 q 616 383 616 316 q 568 499 616 450 q 452 548 519 548 l 288 547 l 288 218 z "},"в":{"ha":842,"x_min":68,"x_max":815,"o":"m 677 794 q 662 712 677 758 q 631 643 649 675 q 675 618 654 632 q 715 587 701 601 q 815 345 815 486 q 715 102 815 202 q 474 0 616 0 l 68 0 l 68 1093 l 373 1093 q 590 1002 500 1093 q 677 794 677 914 m 474 214 q 564 253 527 214 q 601 345 601 291 q 563 437 601 398 q 474 479 526 475 q 380 480 435 481 l 335 480 q 287 479 306 479 l 287 214 l 474 214 m 465 785 q 438 852 465 823 q 373 880 411 880 l 287 880 l 287 680 q 369 685 316 681 q 437 717 410 690 q 465 785 465 745 z "},"г":{"ha":754,"x_min":68,"x_max":727,"o":"m 68 0 l 68 1093 l 727 1093 l 727 875 l 288 875 l 288 0 l 68 0 z "},"д":{"ha":1059,"x_min":26,"x_max":1026,"o":"m 723 351 l 723 875 l 494 875 l 487 776 l 478 551 q 406 351 460 428 l 723 351 m 943 1093 l 943 351 l 1026 351 l 1026 -1 l 805 -1 l 805 131 l 248 131 l 248 -1 l 26 -1 l 26 351 l 146 351 q 259 561 255 473 l 267 781 l 281 1091 l 943 1093 z "},"е":{"ha":754,"x_min":68,"x_max":727,"o":"m 727 1096 l 727 877 l 288 877 l 288 656 l 617 656 l 617 437 l 288 437 l 288 217 l 727 217 l 727 -1 l 68 -1 l 68 1096 l 727 1096 z "},"ж":{"ha":1467,"x_min":51,"x_max":1440,"o":"m 635 613 l 635 1093 l 856 1093 l 856 613 l 1134 1093 l 1388 1093 l 1064 538 l 1440 0 l 1173 0 l 856 456 l 856 0 l 635 0 l 635 456 l 318 0 l 51 0 l 427 538 l 103 1093 l 357 1093 l 635 613 z "},"з":{"ha":789,"x_min":33,"x_max":755,"o":"m 389 224 q 490 262 448 224 q 533 359 533 302 q 465 500 533 438 q 267 568 396 562 l 313 659 q 439 716 399 675 q 478 805 478 756 l 476 804 q 450 865 476 840 q 388 892 424 892 q 331 871 355 892 q 302 822 307 851 l 83 869 q 189 1040 106 970 q 388 1114 275 1114 q 608 1023 515 1114 q 699 803 699 931 q 638 617 699 699 q 646 611 644 613 q 755 357 755 506 q 646 104 755 208 q 388 0 539 0 q 164 75 263 0 q 33 271 63 151 l 249 326 q 298 254 258 283 q 389 224 338 224 z "},"и":{"ha":1015,"x_min":68,"x_max":947,"o":"m 947 1116 l 947 -1 l 727 -1 l 727 606 l 68 -22 l 68 1096 l 288 1096 l 288 489 l 947 1116 z "},"й":{"ha":1015,"x_min":68,"x_max":947,"o":"m 947 1116 l 947 -1 l 727 -1 l 727 606 l 68 -22 l 68 1096 l 288 1096 l 288 489 l 947 1116 m 526 1310 q 593 1338 565 1310 q 621 1405 621 1367 l 723 1405 q 665 1266 723 1324 q 526 1208 606 1208 q 387 1266 445 1208 q 329 1405 329 1324 l 431 1405 q 458 1338 431 1366 q 526 1310 486 1310 z "},"к":{"ha":900,"x_min":68,"x_max":873,"o":"m 287 1093 l 287 610 l 567 1093 l 821 1093 l 497 538 l 873 0 l 606 0 l 287 458 l 287 0 l 68 0 l 68 1093 l 287 1093 z "},"л":{"ha":1042,"x_min":27,"x_max":1015,"o":"m 1015 4 l 780 4 l 519 587 l 260 4 l 27 4 l 520 1093 l 1015 4 z "},"м":{"ha":1206,"x_min":68,"x_max":1139,"o":"m 604 385 l 1139 1119 l 1139 0 l 919 0 l 919 453 l 604 18 l 288 453 l 288 0 l 68 0 l 68 1119 l 604 385 z "},"н":{"ha":939,"x_min":68,"x_max":871,"o":"m 287 1093 l 287 656 l 652 656 l 652 1093 l 871 1093 l 871 0 l 652 0 l 652 438 l 287 438 l 287 0 l 68 0 l 68 1093 l 287 1093 z "},"о":{"ha":1163,"x_min":27,"x_max":1137,"o":"m 582 1102 q 974 939 810 1102 q 1137 546 1137 775 q 974 154 1137 316 q 582 -7 811 -7 q 190 154 352 -7 q 27 546 27 317 q 190 939 27 774 q 582 1102 353 1102 m 582 880 q 347 783 443 880 q 249 547 249 684 q 347 312 249 410 q 582 215 444 215 q 817 312 718 215 q 915 547 915 409 q 817 783 915 684 q 582 880 719 880 z "},"п":{"ha":929,"x_min":68,"x_max":868,"o":"m 288 875 l 288 0 l 68 0 l 68 1093 l 868 1093 l 868 0 l 648 0 l 648 875 l 288 875 z "},"р":{"ha":863,"x_min":68,"x_max":836,"o":"m 68 1093 l 452 1093 q 723 981 611 1093 q 836 710 836 869 q 723 440 836 550 q 452 328 610 328 l 288 328 l 288 0 l 68 0 l 68 1093 m 616 710 q 568 826 616 777 q 452 876 519 876 l 288 876 l 288 546 l 452 545 q 568 594 519 545 q 616 710 616 643 z "},"с":{"ha":1002,"x_min":27,"x_max":975,"o":"m 975 154 q 581 -7 812 -7 q 190 154 352 -7 q 27 546 27 317 q 190 939 27 774 q 581 1102 353 1102 l 581 1099 q 974 937 806 1099 l 817 781 q 582 878 718 878 q 347 781 444 878 q 250 545 250 682 q 347 310 250 408 q 582 213 444 213 q 818 311 720 213 l 975 154 z "},"т":{"ha":812,"x_min":27,"x_max":785,"o":"m 785 1093 l 785 876 l 517 876 l 517 0 l 296 0 l 296 876 l 27 876 l 27 1093 l 785 1093 z "},"у":{"ha":932,"x_min":27,"x_max":905,"o":"m 279 1093 l 466 768 l 653 1093 l 905 1093 l 279 0 l 27 1 l 339 547 l 27 1093 l 279 1093 z "},"ф":{"ha":1387,"x_min":42,"x_max":1360,"o":"m 1091 748 q 975 798 1042 798 l 811 798 l 811 325 l 975 324 q 1091 373 1042 324 q 1140 570 1140 422 q 1091 748 1140 699 m 311 374 q 427 324 359 324 l 591 324 l 591 797 l 427 798 q 311 749 359 798 q 262 570 262 700 q 311 374 262 422 m 810 1015 l 975 1015 q 1246 903 1135 1015 q 1360 570 1360 791 q 1246 219 1360 329 q 975 107 1133 107 l 811 107 l 811 0 l 591 0 l 591 106 l 427 106 q 155 218 267 106 q 42 570 42 331 q 155 903 42 793 q 427 1015 269 1015 l 591 1015 l 591 1093 l 810 1093 l 810 1015 z "},"х":{"ha":932,"x_min":27,"x_max":905,"o":"m 279 1093 l 466 768 l 653 1093 l 905 1093 l 592 547 l 905 0 l 653 0 l 466 326 l 279 0 l 27 1 l 339 547 l 27 1093 l 279 1093 z "},"ц":{"ha":1019,"x_min":68,"x_max":983,"o":"m 288 219 l 648 219 l 648 1093 l 868 1093 l 868 219 l 983 219 l 983 -134 l 770 -134 l 770 -1 l 90 -1 l 90 0 l 68 0 l 68 1093 l 288 1093 l 288 219 z "},"ч":{"ha":939,"x_min":68,"x_max":871,"o":"m 68 607 l 68 1093 l 287 1093 l 287 656 l 652 656 l 652 1093 l 871 1093 l 871 0 l 652 0 l 652 438 l 216 437 l 215 439 l 210 439 q 111 479 152 439 q 69 578 69 521 q 68 607 69 593 z "},"ш":{"ha":1202,"x_min":62,"x_max":1159,"o":"m 62 1094 l 281 1094 l 281 216 l 501 216 l 503 1093 l 722 1093 l 720 216 l 941 216 l 941 1093 l 1159 1093 l 1159 -3 l 62 -3 l 62 1094 z "},"щ":{"ha":1277,"x_min":62,"x_max":1255,"o":"m 362 -3 l 62 -3 l 62 1094 l 281 1094 l 281 216 l 501 216 l 503 1093 l 722 1093 l 720 216 l 941 216 l 941 1093 l 1159 1093 l 1159 216 l 1255 216 l 1255 -138 l 1042 -138 l 1042 -4 l 362 -4 l 362 -3 z "},"ъ":{"ha":940,"x_min":20,"x_max":913,"o":"m 693 383 q 644 499 693 450 q 528 548 595 548 l 364 547 l 364 218 l 528 218 q 644 267 595 218 q 693 383 693 316 m 144 1093 l 144 1093 l 364 1093 l 364 765 l 528 765 q 800 653 686 765 q 913 383 913 543 q 800 112 913 224 q 528 0 688 0 l 144 0 l 144 877 l 20 877 l 20 1093 l 144 1093 z "},"ы":{"ha":1168,"x_min":68,"x_max":1124,"o":"m 68 1093 l 288 1093 l 288 765 l 452 765 q 723 653 610 765 q 836 383 836 543 q 723 112 836 224 q 452 0 611 0 l 68 0 l 68 1093 m 616 383 q 568 499 616 450 q 452 548 519 548 l 288 547 l 288 218 l 452 218 q 568 267 519 218 q 616 383 616 316 m 905 0 l 1124 0 l 1124 1093 l 905 1093 l 905 0 z "},"ь":{"ha":863,"x_min":68,"x_max":836,"o":"m 68 1093 l 288 1093 l 288 765 l 452 765 q 723 653 610 765 q 836 383 836 543 q 723 112 836 224 q 452 0 611 0 l 68 0 l 68 1093 m 616 383 q 568 499 616 450 q 452 548 519 548 l 288 547 l 288 218 l 452 218 q 568 267 519 218 q 616 383 616 316 z "},"э":{"ha":1002,"x_min":27,"x_max":975,"o":"m 734 656 q 654 781 710 724 q 420 878 558 878 q 184 781 283 878 l 28 937 q 421 1099 196 1099 l 420 1102 q 812 939 648 1102 q 975 546 975 774 q 812 154 975 317 q 420 -7 650 -7 q 27 154 190 -7 l 184 311 q 420 213 281 213 q 654 310 557 213 q 735 437 711 367 l 432 437 l 432 656 l 734 656 z "},"ю":{"ha":1506,"x_min":48,"x_max":1480,"o":"m 924 880 q 689 783 785 880 q 591 547 591 684 q 689 312 591 410 q 924 215 786 215 q 1159 312 1061 215 q 1257 547 1257 409 q 1159 783 1257 684 q 924 880 1061 880 m 381 662 q 532 939 412 818 q 924 1102 696 1102 q 1316 939 1153 1102 q 1480 546 1480 775 q 1316 154 1480 316 q 924 -7 1154 -7 q 532 154 694 -7 q 381 429 412 274 l 268 429 l 268 0 l 48 0 l 48 1093 l 268 1093 l 268 662 l 381 662 z "},"я":{"ha":897,"x_min":68,"x_max":871,"o":"m 870 0 l 650 0 l 650 484 l 336 0 l 68 0 l 322 396 q 191 497 241 428 q 122 705 122 595 l 122 734 q 150 878 122 819 q 228 982 173 927 q 514 1093 340 1093 l 871 1093 l 870 0 m 566 573 l 566 574 l 651 574 l 651 876 l 528 876 q 392 832 437 876 q 349 727 349 787 q 391 618 349 664 q 493 573 433 573 l 566 573 z "},"ё":{"ha":754,"x_min":68,"x_max":727,"o":"m 161 1290 q 185 1348 161 1323 q 243 1372 210 1372 q 300 1348 275 1372 q 324 1290 324 1323 q 300 1232 324 1257 q 243 1208 276 1208 q 185 1232 209 1208 q 161 1290 161 1256 m 465 1290 q 490 1348 465 1323 q 547 1372 513 1372 q 604 1348 580 1372 q 629 1290 629 1323 q 604 1232 629 1257 q 547 1208 581 1208 q 489 1232 513 1208 q 465 1290 465 1256 m 727 1098 l 727 879 l 288 879 l 288 659 l 617 659 l 617 439 l 288 439 l 288 219 l 727 219 l 727 0 l 68 0 l 68 1098 l 727 1098 z "},"‐":{"ha":631,"x_min":47,"x_max":583,"o":"m 47 561 l 583 561 l 583 369 l 47 369 l 47 561 z "},"‑":{"ha":631,"x_min":47,"x_max":583,"o":"m 47 561 l 583 561 l 583 369 l 47 369 l 47 561 z "},"‒":{"ha":705,"x_min":47,"x_max":658,"o":"m 47 561 l 658 561 l 658 369 l 47 369 l 47 561 z "},"–":{"ha":705,"x_min":47,"x_max":658,"o":"m 47 561 l 658 561 l 658 369 l 47 369 l 47 561 z "},"—":{"ha":1153,"x_min":47,"x_max":1105,"o":"m 47 561 l 1105 561 l 1105 369 l 47 369 l 47 561 z "},"―":{"ha":1377,"x_min":47,"x_max":1329,"o":"m 47 561 l 1329 561 l 1329 369 l 47 369 l 47 561 z "},"‘":{"ha":402,"x_min":54,"x_max":347,"o":"m 347 870 q 304 767 347 810 q 201 724 261 724 l 202 724 q 98 768 143 724 q 54 873 54 814 q 128 1064 54 980 q 221 1121 159 1099 q 276 1120 237 1126 q 320 1106 314 1114 q 281 1068 329 1093 q 248 999 235 1042 q 317 954 290 985 q 347 870 347 918 m 249 1101 z "},"’":{"ha":402,"x_min":54,"x_max":347,"o":"m 54 975 q 96 1078 54 1034 q 199 1120 140 1120 l 199 1121 q 302 1076 258 1121 q 347 972 347 1031 q 273 781 347 865 q 180 724 241 746 q 125 724 163 719 q 81 739 87 730 q 119 777 72 751 q 153 846 166 802 q 83 891 111 860 q 54 975 54 926 m 152 744 z "},"‚":{"ha":402,"x_min":54,"x_max":347,"o":"m 54 121 q 96 224 54 181 q 199 267 140 267 l 199 268 q 302 223 258 268 q 347 119 347 178 q 273 -73 347 12 q 180 -130 241 -107 q 125 -129 163 -134 q 81 -115 87 -123 q 119 -76 72 -102 q 153 -7 166 -51 q 83 38 111 7 q 54 121 54 73 m 152 -109 z "},"‛":{"ha":402,"x_min":54,"x_max":347,"o":"m 347 975 q 304 1078 347 1034 q 201 1120 261 1120 l 202 1121 q 98 1076 143 1121 q 54 972 54 1031 q 128 781 54 865 q 221 724 159 746 q 276 724 237 719 q 320 739 314 730 q 281 777 329 751 q 248 846 235 802 q 317 891 290 860 q 347 975 347 926 m 249 744 z "},"“":{"ha":755,"x_min":54,"x_max":700,"o":"m 700 870 q 657 767 700 810 q 554 724 614 724 l 555 724 q 451 768 496 724 q 406 873 406 814 q 481 1064 406 980 q 574 1121 512 1099 q 629 1120 590 1126 q 673 1106 667 1114 q 634 1068 682 1093 q 600 999 587 1042 q 670 954 643 985 q 700 870 700 918 m 602 1101 m 347 870 q 304 767 347 810 q 201 724 261 724 l 202 724 q 98 768 143 724 q 54 873 54 814 q 128 1064 54 980 q 221 1121 159 1099 q 276 1120 237 1126 q 320 1106 314 1114 q 281 1068 329 1093 q 248 999 235 1042 q 317 954 290 985 q 347 870 347 918 m 249 1101 z "},"”":{"ha":755,"x_min":54,"x_max":700,"o":"m 54 975 q 96 1078 54 1034 q 199 1120 140 1120 l 199 1121 q 302 1076 258 1121 q 347 972 347 1031 q 273 781 347 865 q 180 724 241 746 q 125 724 163 719 q 81 739 87 730 q 119 777 72 751 q 153 846 166 802 q 83 891 111 860 q 54 975 54 926 m 152 744 m 406 975 q 449 1078 406 1034 q 552 1120 492 1120 l 551 1121 q 655 1076 610 1121 q 700 972 700 1031 q 625 781 700 865 q 532 724 594 746 q 477 724 516 719 q 433 739 439 730 q 471 777 425 751 q 506 846 519 802 q 436 891 463 860 q 406 975 406 926 m 505 744 z "},"„":{"ha":755,"x_min":54,"x_max":700,"o":"m 406 121 q 449 224 406 181 q 552 267 492 267 l 551 268 q 655 223 610 268 q 700 119 700 178 q 625 -73 700 12 q 532 -130 594 -107 q 477 -129 516 -134 q 433 -115 439 -123 q 471 -76 425 -102 q 506 -7 519 -51 q 436 38 463 7 q 406 121 406 73 m 505 -109 m 54 121 q 96 224 54 181 q 199 267 140 267 l 199 268 q 302 223 258 268 q 347 119 347 178 q 273 -73 347 12 q 180 -130 241 -107 q 125 -129 163 -134 q 81 -115 87 -123 q 119 -76 72 -102 q 153 -7 166 -51 q 83 38 111 7 q 54 121 54 73 m 152 -109 z "},"‟":{"ha":755,"x_min":54,"x_max":700,"o":"m 700 975 q 657 1078 700 1034 q 554 1120 614 1120 l 555 1121 q 451 1076 496 1121 q 406 972 406 1031 q 481 781 406 865 q 574 724 512 746 q 629 724 590 719 q 673 739 667 730 q 634 777 682 751 q 600 846 587 802 q 670 891 643 860 q 700 975 700 926 m 602 744 m 347 975 q 304 1078 347 1034 q 201 1120 261 1120 l 202 1121 q 98 1076 143 1121 q 54 972 54 1031 q 128 781 54 865 q 221 724 159 746 q 276 724 237 719 q 320 739 314 730 q 281 777 329 751 q 248 846 235 802 q 317 891 290 860 q 347 975 347 926 m 249 744 z "},"‥":{"ha":952,"x_min":102,"x_max":850,"o":"m 710 -35 q 611 6 652 -35 q 570 105 570 47 q 611 204 570 163 q 710 245 652 245 q 809 204 767 245 q 850 105 850 162 q 809 7 850 47 q 710 -35 768 -35 m 242 -35 q 143 6 184 -35 q 102 105 102 47 q 143 204 102 163 q 242 245 184 245 q 341 204 299 245 q 382 105 382 162 q 341 7 382 47 q 242 -35 300 -35 z "},"…":{"ha":1705,"x_min":170,"x_max":1535,"o":"m 1395 -35 q 1296 6 1337 -35 q 1255 105 1255 47 q 1296 204 1255 163 q 1395 245 1337 245 q 1494 204 1452 245 q 1535 105 1535 162 q 1494 7 1535 47 q 1395 -35 1453 -35 m 852 -35 q 753 6 795 -35 q 712 105 712 47 q 753 204 712 163 q 852 245 795 245 q 951 204 909 245 q 993 105 993 162 q 951 7 993 47 q 852 -35 910 -35 m 310 -35 q 211 6 252 -35 q 170 105 170 47 q 211 204 170 163 q 310 245 252 245 q 409 204 367 245 q 450 105 450 162 q 409 7 450 47 q 310 -35 368 -35 z "},"‰":{"ha":1565,"x_min":33,"x_max":1531,"o":"m 334 875 q 309 932 335 907 q 254 958 284 958 q 197 936 226 958 q 170 876 170 915 q 196 814 170 836 q 253 792 221 792 q 309 817 286 792 q 334 875 333 841 m 1039 245 q 1112 419 1039 347 q 1285 492 1184 492 q 1458 418 1385 492 q 1531 245 1531 346 q 1458 73 1531 145 q 1285 0 1385 0 q 1112 73 1184 0 q 1039 245 1039 144 m 1284 361 q 1169 245 1169 361 q 1284 131 1169 131 q 1399 245 1399 131 q 1284 361 1399 361 m 887 1094 l 197 0 l 33 0 l 724 1094 l 887 1094 m 499 245 q 572 419 499 347 q 745 492 645 492 q 918 418 846 492 q 991 245 991 347 q 918 73 991 145 q 745 0 846 0 q 572 73 644 0 q 499 245 499 144 m 745 360 q 629 245 629 360 q 745 131 629 131 q 859 245 859 131 q 745 360 859 360 m 33 874 q 98 1029 33 964 q 253 1093 163 1093 q 406 1027 341 1093 q 472 874 472 962 q 407 720 472 785 q 253 654 342 654 q 98 719 163 654 q 33 874 33 783 z "},"‿":{"ha":1351,"x_min":47,"x_max":1303,"o":"m 325 309 l 370 681 l 257 547 l 177 681 l 160 542 l 92 542 l 134 884 l 271 660 l 464 884 q 374 153 413 469 l 195 345 l 173 159 l 105 159 l 147 503 l 325 309 m 633 652 l 612 722 l 573 652 l 633 652 m 538 591 l 509 542 l 437 542 l 632 884 l 744 542 q 779 427 758 496 l 815 312 l 917 496 l 989 496 l 795 153 l 686 496 l 668 547 l 653 593 l 538 593 l 538 591 m 768 541 q 797 760 781 633 l 811 877 l 920 877 q 1004 843 974 877 q 1025 755 1033 809 q 998 695 1021 722 q 943 658 976 669 l 1004 541 l 922 541 l 852 673 l 836 541 l 768 541 m 907 715 q 951 745 935 715 q 947 797 966 774 q 907 810 935 810 l 870 810 q 859 715 865 764 l 907 715 m 1196 779 q 1187 804 1196 793 q 1165 813 1179 813 q 1131 789 1141 813 q 1139 751 1119 766 q 1177 733 1155 739 q 1227 702 1210 721 q 1247 640 1251 677 q 1208 570 1242 600 q 1133 539 1175 539 q 1064 568 1090 539 q 1042 640 1037 598 l 1111 640 q 1118 616 1108 626 q 1141 606 1126 606 q 1166 616 1155 606 q 1179 640 1177 627 q 1168 665 1181 657 q 1156 671 1164 668 l 1149 674 l 1143 677 l 1143 680 q 1083 711 1103 693 q 1059 779 1055 738 q 1097 848 1064 819 q 1174 879 1131 879 q 1241 850 1215 879 q 1263 779 1268 821 l 1196 779 m 668 498 l 660 431 l 526 431 l 517 362 l 618 362 l 610 295 l 509 295 l 500 227 l 635 227 l 627 160 l 425 160 l 467 498 l 668 498 m 1303 1042 l 1303 52 l 47 52 l 47 1042 l 1303 1042 m 70 1019 l 70 73 l 1282 73 l 1282 1019 l 70 1019 z "},"⁋":{"ha":1351,"x_min":47,"x_max":1303,"o":"m 325 309 l 370 681 l 257 547 l 177 681 l 160 542 l 92 542 l 134 884 l 271 660 l 464 884 q 374 153 413 469 l 195 345 l 173 159 l 105 159 l 147 503 l 325 309 m 633 652 l 612 722 l 573 652 l 633 652 m 538 591 l 509 542 l 437 542 l 632 884 l 744 542 q 779 427 758 496 l 815 312 l 917 496 l 989 496 l 795 153 l 686 496 l 668 547 l 653 593 l 538 593 l 538 591 m 768 541 q 797 760 781 633 l 811 877 l 920 877 q 1004 843 974 877 q 1025 755 1033 809 q 998 695 1021 722 q 943 658 976 669 l 1004 541 l 922 541 l 852 673 l 836 541 l 768 541 m 907 715 q 951 745 935 715 q 947 797 966 774 q 907 810 935 810 l 870 810 q 859 715 865 764 l 907 715 m 1196 779 q 1187 804 1196 793 q 1165 813 1179 813 q 1131 789 1141 813 q 1139 751 1119 766 q 1177 733 1155 739 q 1227 702 1210 721 q 1247 640 1251 677 q 1208 570 1242 600 q 1133 539 1175 539 q 1064 568 1090 539 q 1042 640 1037 598 l 1111 640 q 1118 616 1108 626 q 1141 606 1126 606 q 1166 616 1155 606 q 1179 640 1177 627 q 1168 665 1181 657 q 1156 671 1164 668 l 1149 674 l 1143 677 l 1143 680 q 1083 711 1103 693 q 1059 779 1055 738 q 1097 848 1064 819 q 1174 879 1131 879 q 1241 850 1215 879 q 1263 779 1268 821 l 1196 779 m 668 498 l 660 431 l 526 431 l 517 362 l 618 362 l 610 295 l 509 295 l 500 227 l 635 227 l 627 160 l 425 160 l 467 498 l 668 498 m 1303 1042 l 1303 52 l 47 52 l 47 1042 l 1303 1042 m 70 1019 l 70 73 l 1282 73 l 1282 1019 l 70 1019 z "},"₀":{"ha":548,"x_min":61,"x_max":487,"o":"m 61 547 q 117 740 61 662 q 274 823 177 823 q 431 741 372 823 q 487 547 487 662 q 431 353 487 432 q 274 271 372 271 q 117 354 176 271 q 61 547 61 432 m 341 677 q 274 713 315 713 q 207 677 233 713 q 171 547 171 626 q 207 417 171 467 q 274 382 233 382 q 341 417 315 382 q 377 547 377 467 q 341 677 377 627 z "},"₁":{"ha":287,"x_min":60,"x_max":225,"o":"m 225 823 l 225 275 l 115 275 l 115 678 l 60 662 l 60 777 l 225 823 z "},"₂":{"ha":515,"x_min":61,"x_max":453,"o":"m 258 715 q 197 690 222 715 q 173 630 173 665 l 63 630 q 120 768 63 711 q 258 825 177 825 q 396 768 339 825 q 453 630 453 710 q 427 534 453 581 q 361 444 400 487 l 345 429 l 331 413 q 299 385 314 397 l 451 385 l 451 275 l 61 275 l 79 337 q 258 494 178 407 q 319 570 296 534 q 343 630 343 606 q 317 690 343 665 q 258 715 293 715 z "},"₃":{"ha":483,"x_min":61,"x_max":422,"o":"m 239 391 q 290 410 269 391 q 311 458 311 429 q 277 529 311 498 q 178 563 243 559 l 201 608 q 264 637 244 616 q 283 681 283 656 l 283 680 q 269 711 283 699 q 239 724 256 724 q 210 714 222 724 q 195 690 198 704 l 86 713 q 138 799 97 764 q 239 836 182 836 q 349 790 302 836 q 394 680 394 744 q 363 587 394 628 q 368 584 366 585 q 422 457 422 532 q 368 330 422 382 q 239 279 314 279 q 127 316 176 279 q 61 414 76 354 l 169 441 q 193 406 174 420 q 239 391 214 391 z "},"₄":{"ha":568,"x_min":61,"x_max":507,"o":"m 343 823 l 226 501 l 343 501 l 343 714 l 452 714 l 452 501 l 507 501 l 507 392 l 452 392 l 452 275 l 343 275 l 343 392 l 61 392 l 224 823 l 343 823 z "},"₅":{"ha":505,"x_min":61,"x_max":444,"o":"m 244 383 q 304 406 279 383 q 330 465 330 430 q 304 522 330 498 q 250 548 278 548 q 192 541 212 548 q 140 505 172 532 l 79 536 l 107 820 l 399 820 l 399 711 l 198 711 l 192 646 q 250 654 218 654 q 385 598 325 654 q 444 465 444 542 q 385 330 444 385 q 244 273 326 273 q 130 308 182 273 q 61 389 82 340 l 170 424 q 244 383 195 383 z "},"₆":{"ha":507,"x_min":61,"x_max":446,"o":"m 254 380 q 313 404 288 380 q 337 462 337 429 q 313 520 337 496 q 254 545 288 545 l 254 545 q 195 519 220 545 q 172 462 172 496 q 195 404 172 428 q 254 380 220 380 m 362 819 l 267 653 q 394 593 341 647 q 446 462 446 537 q 389 326 446 382 q 253 271 332 271 q 117 326 173 271 q 61 462 61 381 q 85 554 61 509 l 87 559 l 90 564 q 95 573 93 570 l 237 819 l 362 819 z "},"₇":{"ha":496,"x_min":61,"x_max":435,"o":"m 435 819 l 262 271 l 146 271 l 283 712 l 61 712 l 61 819 l 435 819 z "},"₈":{"ha":479,"x_min":61,"x_max":418,"o":"m 199 671 q 211 642 199 654 q 241 630 223 630 l 240 630 q 269 642 256 630 q 281 671 281 654 q 269 700 281 688 q 240 712 256 712 q 211 700 223 712 q 199 671 199 688 m 361 582 q 418 451 418 528 q 366 325 418 377 q 239 273 314 273 q 113 325 165 273 q 61 451 61 376 q 118 582 61 528 q 89 671 89 621 q 133 777 89 733 q 240 821 177 821 q 347 777 302 821 q 391 671 391 733 q 361 582 391 621 m 239 381 q 288 401 267 381 q 309 450 309 422 q 288 499 309 478 q 239 520 267 520 l 239 519 q 190 498 210 519 q 170 450 170 478 q 190 401 170 422 q 239 381 210 381 z "},"₉":{"ha":507,"x_min":61,"x_max":446,"o":"m 171 632 q 195 574 171 599 q 253 550 219 550 q 311 574 287 550 q 336 632 336 598 q 311 690 336 666 q 253 715 287 715 q 195 690 219 715 q 171 632 171 666 m 144 275 l 239 440 q 113 501 164 446 q 61 632 61 556 q 117 768 61 711 q 253 824 173 824 q 389 768 333 824 q 446 632 446 711 q 425 544 446 586 l 421 538 l 418 532 q 413 522 414 524 l 271 275 l 144 275 z "},"€":{"ha":1084,"x_min":33,"x_max":1049,"o":"m 1049 154 q 656 -7 886 -7 q 264 154 426 -7 q 118 408 153 264 l 33 408 l 45 517 l 102 517 q 102 547 102 527 q 102 585 102 572 l 33 585 l 45 694 l 120 694 q 264 939 157 831 q 656 1102 427 1102 l 656 1099 q 1048 937 880 1099 l 892 781 q 657 878 792 878 q 422 781 518 878 q 359 694 382 741 l 838 694 l 826 585 l 326 585 q 324 546 324 566 q 326 517 324 536 l 819 517 l 808 408 l 353 408 q 422 311 378 353 q 657 213 518 213 q 892 311 794 213 l 1049 154 z "}}}
